<svg xmlns="http://www.w3.org/2000/svg" xmlns:xlink="http://www.w3.org/1999/xlink" width="417.121" height="282.474" viewBox="0 0 417.121 282.474">
  <defs>
    <style>
      .cls-1, .cls-2, .cls-5 {
        fill: #e53f14;
      }

      .cls-1, .cls-18, .cls-8 {
        opacity: 0.1;
      }

      .cls-3 {
        fill: #444053;
      }

      .cls-4 {
        fill: #fff;
      }

      .cls-12, .cls-5 {
        opacity: 0.2;
      }

      .cls-6 {
        fill: url(#linear-gradient);
      }

      .cls-7 {
        fill: #65617d;
      }

      .cls-9 {
        fill: #fbbebe;
      }

      .cls-10 {
        fill: #3f3d56;
      }

      .cls-11 {
        fill: #e7effd;
      }

      .cls-13 {
        fill: url(#linear-gradient-2);
      }

      .cls-14 {
        fill: #be6f72;
      }

      .cls-15 {
        fill: #f3f5f9;
      }

      .cls-16 {
        fill: #67647e;
      }

      .cls-17 {
        fill: none;
      }

      .cls-19 {
        fill: url(#linear-gradient-3);
      }

      .cls-20 {
        opacity: 0.05;
      }

      .cls-21 {
        fill: #ee8e9e;
      }

      .cls-22 {
        fill: #e3e8f4;
      }

      .cls-23 {
        fill: #e6e8ec;
      }

      .cls-24 {
        fill: #565387;
      }
    </style>
    <linearGradient id="linear-gradient" x1="0.501" y1="1" x2="0.501" gradientUnits="objectBoundingBox">
      <stop offset="0" stop-color="gray" stop-opacity="0.251"/>
      <stop offset="0.54" stop-color="gray" stop-opacity="0.122"/>
      <stop offset="1" stop-color="gray" stop-opacity="0.102"/>
    </linearGradient>
    <linearGradient id="linear-gradient-2" x1="-4.618" y1="1" x2="-4.618" y2="0" xlink:href="#linear-gradient"/>
    <linearGradient id="linear-gradient-3" x1="0.5" y1="1" x2="0.5" y2="0" xlink:href="#linear-gradient"/>
  </defs>
  <g id="pic-banner" transform="translate(-61 -334.249)">
    <g id="chahua_left" transform="translate(61.01 334.209)">
      <path id="路径_1" data-name="路径 1" class="cls-1" d="M445.111,230.883c0-25.92-10.96-48.814-27.711-62.582q.346-3.927.365-7.967c0-42.087-28.892-76.2-64.537-76.2A56.748,56.748,0,0,0,321.9,93.7C296.677,74.377,263.742,62.68,227.71,62.68c-58.626,0-109.056,30.967-131.428,75.373-1.243-.084-2.494-.131-3.756-.131-35.637,0-64.537,34.117-64.537,76.2a85.96,85.96,0,0,0,10.618,41.887h0a68.547,68.547,0,0,0,68.547,68.547h274.6a53.832,53.832,0,0,0,53.831-53.832h0A86.35,86.35,0,0,0,445.111,230.883Z" transform="translate(-28 -62.64)"/>
      <path id="路径_2" data-name="路径 2" class="cls-2" d="M663.972,724.466s-4.481-2.957-8.922-.853c0,0,1.367,2.636,6.99,2.385Z" transform="translate(-426.426 -482.108)"/>
      <path id="路径_3" data-name="路径 3" class="cls-2" d="M675.824,727.7s1.364,5.2-2.056,8.725c0,0-2.056-2.14,0-7.383Z" transform="translate(-437.738 -485.185)"/>
      <path id="路径_4" data-name="路径 4" class="cls-2" d="M678.4,708.34s-.328-4.415-10.3-2.95c0,0-.047,2.848,3.453,4.2S676.654,709.8,678.4,708.34Z" transform="translate(-434.717 -470.82)"/>
      <path id="路径_5" data-name="路径 5" class="cls-2" d="M692.907,714s4.215,1.356.456,10.705c0,0-2.782-.62-3.281-4.339S691.084,715.338,692.907,714Z" transform="translate(-448.622 -476.48)"/>
      <path id="路径_6" data-name="路径 6" class="cls-2" d="M696.732,685.315s.569-7.267-9.618-6.519c0,0-.729,6.563,7.821,8.266Z" transform="translate(-446.788 -454.078)"/>
      <path id="路径_7" data-name="路径 7" class="cls-2" d="M711.814,663.4s-1.4-8.233-11.584-5.779c0,0-.036,7.117,9.921,7.741Z" transform="translate(-455.132 -440.37)"/>
      <path id="路径_8" data-name="路径 8" class="cls-2" d="M723.82,640.426s-2.337-8.021-12.43-5.619c0,0,2.4,7.212,11.762,7.1Z" transform="translate(-462.223 -425.877)"/>
      <path id="路径_9" data-name="路径 9" class="cls-2" d="M737.342,617.322s-2.29-8.328-12.032-5.834c0,0,3.249,7.908,11.387,7.241Z" transform="translate(-471.068 -411.049)"/>
      <path id="路径_10" data-name="路径 10" class="cls-2" d="M747.674,592.333s-1.757-10.184-10.844-7.93c0,0,2.64,9.261,10.176,9.411Z" transform="translate(-478.388 -393.929)"/>
      <path id="路径_11" data-name="路径 11" class="cls-2" d="M754.623,566.993s-2.111-10.26-11.3-7.292c0,0,3.606,9.7,10.654,8.7Z" transform="translate(-482.511 -378.098)"/>
      <path id="路径_12" data-name="路径 12" class="cls-2" d="M760.9,538.974s-3.351-10.26-10.457-9.983c0,0,3.424,10.836,9.845,12.032Z" transform="translate(-487.035 -358.924)"/>
      <path id="路径_13" data-name="路径 13" class="cls-2" d="M765.729,512.746s-3.646-12.353-9.429-11.4c0,0,2.523,9.44,9.225,13.323Z" transform="translate(-490.759 -341.331)"/>
      <path id="路径_14" data-name="路径 14" class="cls-2" d="M768.005,485.771s-3.416-10.293-9.115-10.7c0,0,2.326,10.125,9,13.378Z" transform="translate(-492.404 -324.667)"/>
      <path id="路径_15" data-name="路径 15" class="cls-2" d="M771.811,459.727s-4.262-10.3-8.021-10.537c0,0,1.852,10.147,7.657,12.229Z" transform="translate(-495.518 -308.223)"/>
      <path id="路径_16" data-name="路径 16" class="cls-2" d="M775.952,432.45s-2.622-11.19-6.392-12.12c0,0,.518,9.155,6.013,12.958Z" transform="translate(-499.184 -289.886)"/>
      <path id="路径_17" data-name="路径 17" class="cls-2" d="M780.866,403.578s-2.764-8.929-5.816-10.278c0,0,.6,10.515,5.1,12.459Z" transform="translate(-502.672 -272.712)"/>
      <path id="路径_18" data-name="路径 18" class="cls-2" d="M790.216,373l.554-15.729s-5.7,11.872-.974,18.5Z" transform="translate(-510.852 -249.819)"/>
      <path id="路径_19" data-name="路径 19" class="cls-2" d="M802.422,336.413s4.109-11.485,5.1-12.123c0,0-8.054,7.449-7.27,17.035Z" transform="translate(-518.654 -228.864)"/>
      <path id="路径_20" data-name="路径 20" class="cls-2" d="M711.4,696.579s7.227-.955,7.011,9.254c0,0-6.53,1.065-8.663-7.38Z" transform="translate(-461.181 -465.396)"/>
      <path id="路径_21" data-name="路径 21" class="cls-2" d="M730.033,673.52s8.35-.029,7.657,10.424c0,0-7.008,1.254-9.319-8.452Z" transform="translate(-473.012 -450.76)"/>
      <path id="路径_22" data-name="路径 22" class="cls-2" d="M744.541,651.689s7.58-3.555,12.43,5.619c0,0-7,2.964-13.1-4.138Z" transform="translate(-482.861 -436.458)"/>
      <path id="路径_23" data-name="路径 23" class="cls-2" d="M757.652,627.128s7.763-3.785,12.32,5.181c0,0-8.087,2.782-12.962-3.766Z" transform="translate(-491.21 -420.779)"/>
      <path id="路径_24" data-name="路径 24" class="cls-2" d="M765.7,601.835s7.471-7.135,13.432.08c0,0-7.631,5.874-13.775,1.51Z" transform="translate(-496.515 -403.212)"/>
      <path id="路径_25" data-name="路径 25" class="cls-2" d="M772.69,574.523s7.515-7.292,13.429.339c0,0-8.437,5.987-13.7,1.2Z" transform="translate(-501.001 -385.862)"/>
      <path id="路径_26" data-name="路径 26" class="cls-2" d="M777,542.729s5.79-9.115,12.608-7.077c0,0-6.009,9.648-12.543,9.217Z" transform="translate(-503.911 -362.972)"/>
      <path id="路径_27" data-name="路径 27" class="cls-2" d="M781.43,515.622s5.834-11.482,11.354-9.48c0,0-4.208,8.82-11.5,11.416Z" transform="translate(-506.631 -344.261)"/>
      <path id="路径_28" data-name="路径 28" class="cls-2" d="M781.78,488.831s6-9.039,11.617-7.934c0,0-4.9,9.163-12.2,10.548Z" transform="translate(-506.58 -328.31)"/>
      <path id="路径_29" data-name="路径 29" class="cls-2" d="M784.05,459.717s4.649-10.136,8.426-10.227c0,0-2.231,10.071-8.113,11.93Z" transform="translate(-508.391 -308.414)"/>
      <path id="路径_30" data-name="路径 30" class="cls-2" d="M786.58,435.069s5.167-10.268,9.046-10.289c0,0-2.643,8.78-8.875,11.194Z" transform="translate(-509.998 -292.714)"/>
      <path id="路径_31" data-name="路径 31" class="cls-2" d="M788.71,406.7s3.865-8.5,7.063-9.48c0,0-1.932,10.355-6.64,11.715Z" transform="translate(-511.352 -275.202)"/>
      <path id="路径_32" data-name="路径 32" class="cls-2" d="M793.271,376.669l8.638-13.159s-2.213,12.98-9.9,15.678Z" transform="translate(-513.448 -253.783)"/>
      <path id="路径_33" data-name="路径 33" class="cls-2" d="M804.442,346.417s10.038-6.928,10.4-8.047c0,0-5.1,9.706-14.584,11.42Z" transform="translate(-518.69 -237.81)"/>
      <path id="路径_34" data-name="路径 34" class="cls-2" d="M812.9,332.61s11.525-11.081,14.468-11.07a18.825,18.825,0,0,0-14.745,10.479Z" transform="translate(-526.544 -227.116)"/>
      <path id="路径_35" data-name="路径 35" class="cls-3" d="M789,377.96l.423.051c2.166-16.951,5.323-26.981,8.889-28.21l-.139-.4C794.4,350.713,791.224,360.59,789,377.96Z" transform="translate(-511.536 -244.818)"/>
      <path id="路径_36" data-name="路径 36" class="cls-3" d="M780.28,466.072l.634.055c.135-1.586.237-3.2.306-4.817.605-14.034,1.542-26.916,2.775-36.578l-.365-.452c-1.236,9.677-2.436,22.971-3.041,37C780.517,462.885,780.415,464.5,780.28,466.072Z" transform="translate(-505.995 -292.396)"/>
      <path id="路径_37" data-name="路径 37" class="cls-3" d="M646.463,613.51c.109-.047,11.277-5.035,22.869-16.929a91.963,91.963,0,0,0,16.717-23.7c5.36-10.909,8.627-24.323,9.721-37.351l-.66.314c-2.461,29.238-15.773,49.223-26.358,60.1-11.478,11.792-22.522,16.725-22.632,16.772Z" transform="translate(-420.752 -363.083)"/>
      <path id="路径_38" data-name="路径 38" class="cls-4" d="M530.87,160.251v35.8c0,1.889-1.823,3.427-4.073,3.427H440.6c-2.25,0-4.073-1.539-4.073-3.427v-35.8a4.1,4.1,0,0,1,4.073-3.821H526.8A4.1,4.1,0,0,1,530.87,160.251Z" transform="translate(-287.581 -122.208)"/>
      <path id="路径_39" data-name="路径 39" class="cls-5" d="M530.87,160.505V170.5H436.53v-9.99a4.069,4.069,0,0,1,4.073-4.069H526.8a4.065,4.065,0,0,1,4.073,4.065Z" transform="translate(-287.581 -122.214)"/>
      <circle id="椭圆_1" data-name="椭圆 1" class="cls-4" cx="2.724" cy="2.724" r="2.724" transform="translate(151.399 38.525)"/>
      <circle id="椭圆_2" data-name="椭圆 2" class="cls-4" cx="2.724" cy="2.724" r="2.724" transform="translate(159.322 38.525)"/>
      <circle id="椭圆_3" data-name="椭圆 3" class="cls-4" cx="2.724" cy="2.724" r="2.724" transform="translate(167.245 38.525)"/>
      <circle id="椭圆_4" data-name="椭圆 4" class="cls-5" cx="10.647" cy="10.647" r="10.647" transform="translate(156.992 51.895)"/>
      <rect id="矩形_2" data-name="矩形 2" class="cls-2" width="44.898" height="1.586" transform="translate(190.351 55.377)"/>
      <rect id="矩形_3" data-name="矩形 3" class="cls-5" width="44.898" height="1.586" transform="translate(190.351 59.242)"/>
      <rect id="矩形_4" data-name="矩形 4" class="cls-5" width="44.898" height="1.586" transform="translate(190.351 63.103)"/>
      <rect id="矩形_5" data-name="矩形 5" class="cls-5" width="44.898" height="1.586" transform="translate(190.351 66.965)"/>
      <path id="路径_40" data-name="路径 40" class="cls-4" d="M827.177,102.481v63.53c0,1.889-1.823,3.427-4.073,3.427H736.9c-2.25,0-4.073-1.539-4.073-3.427v-63.53A4.1,4.1,0,0,1,736.9,98.66h86.2A4.116,4.116,0,0,1,827.177,102.481Z" transform="translate(-475.846 -85.501)"/>
      <path id="路径_41" data-name="路径 41" class="cls-5" d="M827.184,102.733v9.987H732.84v-9.987a4.073,4.073,0,0,1,4.069-4.073h86.2A4.073,4.073,0,0,1,827.184,102.733Z" transform="translate(-475.852 -85.501)"/>
      <circle id="椭圆_5" data-name="椭圆 5" class="cls-4" cx="2.724" cy="2.724" r="2.724" transform="translate(259.438 17.461)"/>
      <circle id="椭圆_6" data-name="椭圆 6" class="cls-4" cx="2.724" cy="2.724" r="2.724" transform="translate(267.361 17.461)"/>
      <circle id="椭圆_7" data-name="椭圆 7" class="cls-4" cx="2.724" cy="2.724" r="2.724" transform="translate(275.284 17.461)"/>
      <circle id="椭圆_8" data-name="椭圆 8" class="cls-5" cx="10.647" cy="10.647" r="10.647" transform="translate(265.031 30.832)"/>
      <rect id="矩形_6" data-name="矩形 6" class="cls-2" width="44.898" height="1.586" transform="translate(298.389 34.317)"/>
      <rect id="矩形_7" data-name="矩形 7" class="cls-5" width="44.898" height="1.586" transform="translate(298.389 38.179)"/>
      <rect id="矩形_8" data-name="矩形 8" class="cls-5" width="44.898" height="1.586" transform="translate(298.389 42.04)"/>
      <rect id="矩形_9" data-name="矩形 9" class="cls-5" width="44.898" height="1.586" transform="translate(298.389 45.905)"/>
      <circle id="椭圆_9" data-name="椭圆 9" class="cls-5" cx="10.647" cy="10.647" r="10.647" transform="translate(265.031 55.742)"/>
      <rect id="矩形_10" data-name="矩形 10" class="cls-2" width="44.898" height="1.586" transform="translate(298.389 59.224)"/>
      <rect id="矩形_11" data-name="矩形 11" class="cls-5" width="44.898" height="1.586" transform="translate(298.389 63.089)"/>
      <rect id="矩形_12" data-name="矩形 12" class="cls-5" width="44.898" height="1.586" transform="translate(298.389 66.95)"/>
      <rect id="矩形_13" data-name="矩形 13" class="cls-5" width="44.898" height="1.586" transform="translate(298.389 70.811)"/>
      <path id="路径_42" data-name="路径 42" class="cls-4" d="M301.222,350.324V488.071c0,4.095-3.952,7.427-8.831,7.427H105.5c-4.879,0-8.831-3.333-8.831-7.427V350.324c0-4.1,3.952-8.284,8.831-8.284h186.89C297.269,342.025,301.222,346.222,301.222,350.324Z" transform="translate(-71.638 -240.142)"/>
      <path id="路径_43" data-name="路径 43" class="cls-5" d="M301.228,350.846V372.5H96.68V350.846A8.827,8.827,0,0,1,105.507,342H292.4a8.827,8.827,0,0,1,8.831,8.846Z" transform="translate(-71.645 -240.116)"/>
      <circle id="椭圆_10" data-name="椭圆 10" class="cls-4" cx="5.903" cy="5.903" r="5.903" transform="translate(30.348 111.236)"/>
      <circle id="椭圆_11" data-name="椭圆 11" class="cls-4" cx="5.903" cy="5.903" r="5.903" transform="translate(47.528 111.236)"/>
      <circle id="椭圆_12" data-name="椭圆 12" class="cls-4" cx="5.903" cy="5.903" r="5.903" transform="translate(64.705 111.236)"/>
      <path id="路径_44" data-name="路径 44" class="cls-2" d="M352.885,512.487a5.889,5.889,0,0,1,.8-2.964,8.538,8.538,0,0,1,.51-.755,39.378,39.378,0,0,0,6.713-21.957c.073-22.42-18.847-40.611-42.237-40.611-20.418,0-37.424,13.884-41.413,32.316a39.115,39.115,0,0,0-.9,8.317,41.251,41.251,0,0,0,41.584,41.121,50.2,50.2,0,0,0,11.474-1.87c2.746-.751,5.469-1.754,6.177-2.02a6.47,6.47,0,0,1,2.264-.412,6.3,6.3,0,0,1,2.454.485l13.79,4.889a3.313,3.313,0,0,0,.948.241,1.932,1.932,0,0,0,1.943-1.943,3.131,3.131,0,0,0-.12-.656Z" transform="translate(-185.811 -306.324)"/>
      <path id="路径_45" data-name="路径 45" class="cls-2" d="M296.586,587.433c-.875.241-1.994.51-3.209.777a44.785,44.785,0,0,1-8.269,1.094,41.238,41.238,0,0,1-41.566-41.121,46.28,46.28,0,0,1,.365-5.2c.146-1.046.317-2.089.558-3.11.244-1.094.536-2.188.853-3.26l-1.947,1.725a36.2,36.2,0,0,0-12.561,27.222,35.791,35.791,0,0,0,6.031,19.941c.558.853.875,1.509.777,1.947s-2.891,15.077-2.891,15.077a1.947,1.947,0,0,0,.656,1.87,1.98,1.98,0,0,0,1.24.438,1.715,1.715,0,0,0,.7-.146l13.644-5.374a3.8,3.8,0,0,1,2.917.051,40.966,40.966,0,0,0,14.76,2.917,38.2,38.2,0,0,0,29.206-13.4s.78-1.068,1.677-2.334c-.9.317-1.922.631-2.942.9Z" transform="translate(-156.869 -363.769)"/>
      <path id="路径_46" data-name="路径 46" class="cls-6" d="M121.259,647.519s-5.706,1.375-7.967,3.963a7.748,7.748,0,0,1-3.041,1.932v-3.909c1.305-2.188,2.625-4.631,2.625-4.631.058-.12.532-1.8.532-1.8,1.072-.842-.058-3.785-.058-3.785s.653-1.863.3-2.224-.062-1.32.237-1.739a2.187,2.187,0,0,0,.237-1.323c0-.365-.474-.9-1.247-1.2s.058-.78.532-.9.594-1.262.062-1.863.058-.959.365-1.623-.948-.54-.948-.54v-6.064h0s-.365-1.983-.729-5.469-1.725-3.843-1.725-3.843a15.446,15.446,0,0,1-2.14-.842,14.819,14.819,0,0,0-2.261-.839,11.545,11.545,0,0,1-2.917-.4,8.987,8.987,0,0,0-1.991-.43l-.2-.106a7.8,7.8,0,0,1-3.61-3.825c-.036-.08-.069-.164-.1-.244a8.724,8.724,0,0,0,.952-1.262h0v.707h0c.952-1.677,3.7-2.06,3.963-3.971a2.115,2.115,0,0,0,.018-.262h0v-.193c-.036-.536-.219-1.068-.255-1.608a3.28,3.28,0,0,1,0-.463h0c.12-1.484,1.243-2.775,1.754-4.219a5.272,5.272,0,0,0,.27-1.2h0c0-.124.022-.248.026-.365a.763.763,0,0,1,0-.091v-.259a5.629,5.629,0,0,0-1.856-4.062c-.948-.824-2.188-1.342-2.859-2.417-.306-.5-.456-1.094-.791-1.575a3.958,3.958,0,0,0-2.873-1.411,16.538,16.538,0,0,1-3.263-.434c-.729-.241-1.415-.671-2.162-.89a4.135,4.135,0,0,0-4.445,1.6,7.792,7.792,0,0,1-1.185,1.714c-1.094.919-2.939.521-3.894,1.582a2.819,2.819,0,0,0-.521,2.188v.4c.033.292.077.58.113.86v.128c0,.04.022.175.029.263a1.627,1.627,0,0,1,0,.19v.423a12.762,12.762,0,0,1-1.364,6.4c-.9,1.768-2.235,3.395-2.468,5.367a5.433,5.433,0,0,0-.026.974v.288l.022.2v.117c0,.04.026.175.04.266v.055c.237,1.345.773,2.673,1.057,4.011a11.161,11.161,0,0,1,.211,1.517h0a3.652,3.652,0,0,0,.022.489c.022.164,0,.441,0,.66a11.015,11.015,0,0,1-1.389.427c-.831.12-3.282,2.282-3.092,2.822s-1.094,4.332-1.127,4.441h0l-2.005,13.815s-1.061,1.021-.729,1.681a2.91,2.91,0,0,1-.062,1.8s-1.79.78-1.393,1.262a2.088,2.088,0,0,1-.058,1.984c-.273.6-.729,1.681,0,1.859s.124,2.523.124,2.523,2.509-.288,2.326,1.2c-.058.474,1.754,1.779,2.512,2.3v7.176a21.753,21.753,0,0,1-2.975-1.01c-1.546-.729-10.227-2.1-12.131,2.042s2.618,9.669,3.748,10.271a7.764,7.764,0,0,1,1.305,1.262c.241.419,1.608.54,1.608.54a10.309,10.309,0,0,1,1.783,1.021,20.272,20.272,0,0,0,5.017,1.495h0s-2.078,4.791,1.316,4.4,5.05-2.067,7.445-2.067c.955,0,2.731-.131,4.521-.292a11.565,11.565,0,0,1,1.331.313,17.225,17.225,0,0,0,3.092.66s2.676,1.458,4.1,1.094a.938.938,0,0,0,.325-.171h.033a1.923,1.923,0,0,0,.86-.729,26.507,26.507,0,0,1,4.587.729c1.48.572,12.058-.219,12.058-.219s6.837.135,8.794.729,1.262-6.045-2.352-6.793a14.553,14.553,0,0,0-2.939-.259,6.783,6.783,0,0,0,.682-.831c1.3-.12,2.159-.193,2.159-.193s3.449-1.681,5.411-2.7a12.4,12.4,0,0,0,3.333-2.643s1.725-1.094,2.436-1.5,1.072-1.823,1.072-1.823C135,645.9,121.259,647.519,121.259,647.519Zm-15.485-15.372v-.605C105.963,631.68,105.938,631.9,105.774,632.147Zm.055,4.248c.146.19.284.365.386.492.365.492-.314.729-.263,1.561,0,.186.029.441.044.729h0c-.073-1.185-.131-2.169-.168-2.782Z" transform="translate(-46.6 -392.414)"/>
      <path id="路径_47" data-name="路径 47" class="cls-7" d="M75.114,779.716a35.022,35.022,0,0,1-4.879-1.488c-1.546-.715-10.227-2.082-12.131,2.024s2.618,9.575,3.748,10.169,12.131-7.555,12.131-7.555l8.681,3.646,1.666-5.681Z" transform="translate(-46.841 -516.779)"/>
      <rect id="矩形_14" data-name="矩形 14" class="cls-7" width="37.781" height="13.144" rx="6.572" transform="translate(31.945 264.064)"/>
      <path id="路径_48" data-name="路径 48" class="cls-8" d="M153.408,793.361a6.563,6.563,0,0,1-6.563,6.563H122.2a6.572,6.572,0,1,1,0-13.144h24.637a6.563,6.563,0,0,1,6.563,6.563Z" transform="translate(-83.682 -522.724)"/>
      <path id="路径_49" data-name="路径 49" class="cls-9" d="M119.155,805.88a31.4,31.4,0,0,1-6.88.93c-3.092-.044-17.552,5.965-17.552,5.965s-2.078,4.74,1.316,4.354,5.05-2.045,7.445-2.045,9.925-.828,9.925-.828l7.267-5.356Z" transform="translate(-70.001 -534.86)"/>
      <path id="路径_50" data-name="路径 50" class="cls-9" d="M138.241,653.505l-6.793,1.342-.441.087s-5.374-1.429-5.553-1.55-5.054-6.691-5.054-6.691a9.784,9.784,0,0,0,4.4-1.094,2.339,2.339,0,0,0,.2-.124,4.285,4.285,0,0,0,1.823-2.242c.033-.1.066-.2.095-.306a6.067,6.067,0,0,0-.058-2.917c-.656-2.771.864-3.533,2.9-3.467a22.955,22.955,0,0,1,6.928,1.925,8.109,8.109,0,0,0,.627,2.709c.033.084.069.164.1.244a7.756,7.756,0,0,0,3.61,3.785l.215.106a7.217,7.217,0,0,0,.682.292C147.1,647.558,138.241,653.505,138.241,653.505Z" transform="translate(-86.716 -427.263)"/>
      <path id="路径_51" data-name="路径 51" class="cls-8" d="M148.458,641.4a8.565,8.565,0,0,1-10.574,1.823,5.761,5.761,0,0,0,.036-3.234c-1.6-6.778,9.812-1.542,9.812-1.542A8.281,8.281,0,0,0,148.458,641.4Z" transform="translate(-97.75 -427.249)"/>
      <path id="路径_52" data-name="路径 52" class="cls-9" d="M143.15,618.433a8.565,8.565,0,0,1-8.043,8.547h-.518a8.565,8.565,0,1,1,8.561-8.547Z" transform="translate(-90.287 -410.305)"/>
      <path id="路径_53" data-name="路径 53" class="cls-8" d="M138.241,668.615l-6.793,1.342-.441.088s-5.374-1.429-5.553-1.55S120.4,661.8,120.4,661.8a9.784,9.784,0,0,0,4.4-1.094,2.324,2.324,0,0,0,.2-.124,7.985,7.985,0,0,0,5.8,2.552,8.366,8.366,0,0,0,1.211-.1c.955-.146,1.918-.241,2.88-.339,1.841-.193,4.66-.751,6.136-2.381l.215.106a7.233,7.233,0,0,0,.682.292C147.1,662.668,138.241,668.615,138.241,668.615Z" transform="translate(-86.716 -442.373)"/>
      <path id="路径_54" data-name="路径 54" class="cls-2" d="M131.924,686.153c.058,1.309,1.01,16.043,1.01,16.043H103.259l.2-9.287.16-7.427.055-2.436.237-8.444-.857-.737-4.674-4.12h0c.036-.113,1.3-3.872,1.127-4.4s2.261-2.676,3.092-2.793a11.016,11.016,0,0,0,1.4-.427,18.115,18.115,0,0,1,3.482-1.094,20.879,20.879,0,0,0,3.333-.128h0a7.949,7.949,0,0,0,6.005,2.753,7.851,7.851,0,0,0,1.211-.095c.955-.146,1.918-.241,2.88-.339,1.932-.2,4.941-.809,6.352-2.633a9.075,9.075,0,0,1,1.991.427,11.642,11.642,0,0,0,2.917.4,14.834,14.834,0,0,1,2.261.831,15.732,15.732,0,0,0,2.14.831s1.367.365,1.725,3.807.729,5.414.729,5.414l-7.077,6.125S131.862,684.844,131.924,686.153Z" transform="translate(-72.725 -442.544)"/>
      <path id="路径_55" data-name="路径 55" class="cls-9" d="M68.518,687.464l1.039,1.666,3.9,1.375,2.676-4.882-2.468-1.666-3.956-1.546-2.257,1.309Z" transform="translate(-42.863 -433.569)"/>
      <path id="路径_56" data-name="路径 56" class="cls-7" d="M188.632,769.286s5.531-.419,7.792-2.975,7.967-3.923,7.967-3.923,13.739-1.608,8.328,10.526a3.516,3.516,0,0,1-1.072,1.783c-.707.416-2.436,1.488-2.436,1.488L188.1,774.339Z" transform="translate(-129.732 -507.18)"/>
      <path id="路径_57" data-name="路径 57" class="cls-8" d="M180.711,796.322a6.563,6.563,0,0,1-1.094,3.646c-3.551.317-11.416,1.057-13.06,1.513-2.024.562-6.115-.416-6.563-.525h-.04s-.788-2.392-1.163-3.923c-.171-.693-.255-1.211-.146-1.251.365-.117,3.646-1.01,3.57-.507s9.812-3.836,9.812-3.836l.3,3.807C173.327,796.384,180.711,794.67,180.711,796.322Z" transform="translate(-110.985 -525.685)"/>
      <path id="路径_58" data-name="路径 58" class="cls-7" d="M191.5,793.441l-.416,1.546a12.362,12.362,0,0,1-3.333,2.614c-1.962,1.014-5.411,2.676-5.411,2.676s-12.667,1.072-14.811,1.666-6.6-.521-6.6-.521-1.666-5.054-1.309-5.174,3.628-1.01,3.57-.5S173,791.91,173,791.91Z" transform="translate(-111.606 -525.983)"/>
      <path id="路径_59" data-name="路径 59" class="cls-9" d="M150.41,822.661s6.228.438,7.708,1,12.058-.219,12.058-.219,6.837.135,8.794.729,1.262-5.987-2.352-6.727-8.707.365-8.707.365l-6.443-.864c-.7-.087-5.287.044-5.287.044Z" transform="translate(-105.784 -541.873)"/>
      <path id="路径_60" data-name="路径 60" class="cls-8" d="M83.31,787.66s8.229.729,10.49,2.089Z" transform="translate(-63.15 -523.283)"/>
      <path id="路径_61" data-name="路径 61" class="cls-8" d="M208.456,772.85s-6.443,1.568-8.966,3.876Z" transform="translate(-136.969 -513.873)"/>
      <path id="路径_62" data-name="路径 62" class="cls-8" d="M84.62,782.52c.131.044,3.788.525,3.7.871S84.62,782.52,84.62,782.52Z" transform="translate(-63.982 -520.017)"/>
      <path id="路径_63" data-name="路径 63" class="cls-8" d="M68.86,801.266l.474,1.783a7.578,7.578,0,0,1,1.309,1.251c.237.419,1.608.532,1.608.532a10.158,10.158,0,0,1,1.783,1.014c.357.357,4.222,1.484,7.85,1.962s10.348,1.367,11.777,1.823a17.051,17.051,0,0,0,3.092.656s2.676,1.426,4.1,1.068,3.865-6.836,3.865-6.836-9.4-2.188-9.691-2.917-9.345-4.022-9.345-4.022l-5.353.128Z" transform="translate(-53.968 -529.586)"/>
      <path id="路径_64" data-name="路径 64" class="cls-7" d="M67.88,796.463l.478,1.783a7.675,7.675,0,0,1,1.305,1.247c.241.419,1.608.536,1.608.536a10.158,10.158,0,0,1,1.783,1.014c.357.357,4.222,1.484,7.85,1.962s10.348,1.367,11.777,1.823a17.051,17.051,0,0,0,3.092.656s2.676,1.426,4.1,1.068,3.869-6.836,3.869-6.836-9.4-2.188-9.7-2.917-13.56-6.126-13.56-6.126l-4.178-.933Z" transform="translate(-53.346 -524.604)"/>
      <path id="路径_65" data-name="路径 65" class="cls-2" d="M91.331,684.05l-1.039.594-2.005,13.68s-1.061,1.01-.729,1.663a2.867,2.867,0,0,1-.062,1.787s-1.79.773-1.393,1.247a2.045,2.045,0,0,1-.058,1.962c-.273.594-.729,1.666,0,1.845s.124,2.5.124,2.5,2.509-.284,2.326,1.189c-.077.594,2.837,2.5,2.837,2.5S88.02,707,95.436,707.837l.638-3.384s.638-1.907,0-2.5.146-3.42.146-3.42l.139-12.28Z" transform="translate(-64.636 -457.45)"/>
      <path id="路径_66" data-name="路径 66" class="cls-8" d="M96.8,732.5c.131.215,4.135.66,4.4,1.375S96.8,732.5,96.8,732.5Z" transform="translate(-71.721 -488.235)"/>
      <path id="路径_67" data-name="路径 67" class="cls-8" d="M93.34,739.318s.543-1.7,1.823-1.393S93.34,739.318,93.34,739.318Z" transform="translate(-69.523 -491.659)"/>
      <path id="路径_68" data-name="路径 68" class="cls-8" d="M91.43,744.953s.959-2.261,2.264-2.089S91.43,744.953,91.43,744.953Z" transform="translate(-68.309 -494.814)"/>
      <path id="路径_69" data-name="路径 69" class="cls-9" d="M190.718,743.607l-.416,2.5s-4.3,7.85-5.057,7.97-5-5.236-5-5.236l-1.13-5.232,4.448-.842,1.976-1.954S190.54,741.288,190.718,743.607Z" transform="translate(-124.026 -493.515)"/>
      <path id="路径_70" data-name="路径 70" class="cls-2" d="M194.383,687.789l1.608,1.13v6.005s1.247-.12.948.536-.89,1.01-.365,1.6.416,1.725-.062,1.845-1.309.594-.532.89,1.247.835,1.247,1.192a2.144,2.144,0,0,1-.237,1.305c-.3.419-.594,1.371-.237,1.725s-.3,2.188-.3,2.188,1.13,2.917.058,3.748c0,0-.474,1.663-.532,1.783,0,0,.747-5.79-6.734-3.34l-.19-3.026c-.051-.817.645-1.057.263-1.542s-1.349-1.608-.893-1.9.3-.835.12-1.251-.809-.416-.241-.922.908-.981.572-1.218-.915-1.014-.452-1.367.478-5.531.478-5.531S190.813,684.041,194.383,687.789Z" transform="translate(-129.714 -459.166)"/>
      <path id="路径_71" data-name="路径 71" class="cls-8" d="M203.31,717.18s2.286-.62,2.363,0S203.31,717.18,203.31,717.18Z" transform="translate(-139.396 -478.326)"/>
      <path id="路径_72" data-name="路径 72" class="cls-8" d="M196.26,721.641s3.136-.784,3.526-.175S196.26,721.641,196.26,721.641Z" transform="translate(-134.917 -481.077)"/>
      <path id="路径_73" data-name="路径 73" class="cls-8" d="M194.35,726.5s4.7-.653,5.006.306S194.35,726.5,194.35,726.5Z" transform="translate(-133.703 -484.286)"/>
      <path id="路径_74" data-name="路径 74" class="cls-8" d="M196.26,732.5c.175.04,4.529.365,4.616,1.174S196.26,732.5,196.26,732.5Z" transform="translate(-134.917 -488.235)"/>
      <rect id="矩形_15" data-name="矩形 15" class="cls-10" width="37.282" height="21.177" rx="10.47" transform="translate(26.37 246.941)"/>
      <circle id="椭圆_13" data-name="椭圆 13" class="cls-11" cx="1.375" cy="1.375" r="1.375" transform="translate(43.638 256.155)"/>
      <path id="路径_75" data-name="路径 75" class="cls-8" d="M117.47,704.25s3.573,2.731,6.333.649C123.8,704.888,119.122,705.326,117.47,704.25Z" transform="translate(-84.854 -470.285)"/>
      <path id="路径_76" data-name="路径 76" class="cls-8" d="M167.09,706.27s3.573,2.731,6.337.649C173.427,706.919,168.756,707.342,167.09,706.27Z" transform="translate(-116.382 -471.569)"/>
      <path id="路径_77" data-name="路径 77" class="cls-8" d="M129.84,618.535a8.539,8.539,0,0,1-1.294,4.532,13.075,13.075,0,0,0-1.932-6.764c-1.189-1.823-4.8-5.024-7.292-4.131a1.772,1.772,0,0,0-1.094,1.167c-.244.933.478,1.324.937,2.067a6.34,6.34,0,0,1,.868,4.273,5.317,5.317,0,0,1-.128.591c-.39,1.458-1.283,3.147-.365,4.35.645.839,2.027,1.127,2.217,2.169a1.319,1.319,0,0,1,0,.292c-.044.7-.642,1.32-.9,2.005a3.277,3.277,0,0,0,.182,2.428,15.912,15.912,0,0,1,1.232,3.256,6.4,6.4,0,0,1-.591,3.22,14.314,14.314,0,0,0-.984,3.026c-.284,1.976.438,4.262-.806,5.834a.854.854,0,0,1-.543.365c-.8.084-.66-1.345-1.3-1.823a5.633,5.633,0,0,1-.171,2.483,1.915,1.915,0,0,1-1.914,1.309c-.095-.623-.19-1.247-.281-1.87a5.443,5.443,0,0,1-1.983,1.24,14.482,14.482,0,0,1,2.067-5.6c-2.093,1.01-3.314,3.19-4.4,5.243a6.759,6.759,0,0,0-1.145,4.12c.095.583.365,1.138.4,1.725a1.464,1.464,0,0,1-.7,1.5,1.28,1.28,0,0,1-1.382-.427l-.058-.073-.095-.131a2.166,2.166,0,0,1-.157-.284,5.354,5.354,0,0,1-.335-1.094l-.04-.16a19.443,19.443,0,0,1-.645-7.4,13.823,13.823,0,0,0,.39-2.72,5,5,0,0,0-.31-1.52c-.485-1.36-1.422-2.611-1.954-3.978a.116.116,0,0,1,0-.033,2.183,2.183,0,0,1,.1-2.213,4.435,4.435,0,0,1,.992-.671,4.47,4.47,0,0,0,1.688-3.176,10.7,10.7,0,0,0,.131-1.67,18.122,18.122,0,0,1,3.482-1.094,20.879,20.879,0,0,0,3.333-.128,4.346,4.346,0,0,0,2.042-2.366c.033-.1.066-.2.095-.306a8.565,8.565,0,1,1,12.656-7.566Z" transform="translate(-76.978 -410.407)"/>
      <path id="路径_78" data-name="路径 78" class="cls-10" d="M119.9,603.237c-.39,1.458-1.283,3.147-.365,4.35.645.839,2.027,1.127,2.217,2.169.146.824-.587,1.517-.882,2.3-.707,1.867,1.134,3.7,1.411,5.681.306,2.148-1.258,4.1-1.571,6.246-.284,1.976.438,4.262-.806,5.834a.871.871,0,0,1-.543.365c-.8.084-.664-1.349-1.3-1.823a5.567,5.567,0,0,1-.171,2.479,1.911,1.911,0,0,1-1.914,1.309l-.281-1.87a5.443,5.443,0,0,1-1.983,1.24,14.5,14.5,0,0,1,2.067-5.6c-2.093,1.01-3.314,3.19-4.4,5.243a6.755,6.755,0,0,0-1.145,4.116c.095.587.365,1.141.4,1.728a1.464,1.464,0,0,1-.7,1.5,1.3,1.3,0,0,1-1.458-.5,3.741,3.741,0,0,1-.587-1.513,19.846,19.846,0,0,1-.685-7.558,13.822,13.822,0,0,0,.39-2.72c-.073-2.009-1.553-3.646-2.279-5.528a2.189,2.189,0,0,1,.1-2.217,4.493,4.493,0,0,1,1-.671,4.5,4.5,0,0,0,1.688-3.176,11.015,11.015,0,0,0-.113-3.971c-.419-1.958-1.375-3.865-1.138-5.834s1.571-3.562,2.468-5.312a12.553,12.553,0,0,0,1.276-7.347c-.157-1.17-.427-2.53.365-3.406.955-1.05,2.8-.656,3.894-1.568a7.7,7.7,0,0,0,1.185-1.7,4.16,4.16,0,0,1,4.445-1.586c.747.215,1.422.642,2.162.882a17.047,17.047,0,0,0,3.263.427,3.967,3.967,0,0,1,2.873,1.4c.335.478.485,1.065.791,1.561.656,1.065,1.911,1.575,2.859,2.392a5.553,5.553,0,0,1,1.561,5.925c-.565,1.579-1.874,2.972-1.765,4.642a10.069,10.069,0,0,1,.244,2.042c-.263,1.9-3.012,2.272-3.963,3.934a13.569,13.569,0,0,0-1.932-7.806c-1.189-1.823-4.8-5.024-7.292-4.135a1.772,1.772,0,0,0-1.094,1.167c-.244.933.474,1.324.937,2.067a6.293,6.293,0,0,1,.784,4.835Z" transform="translate(-76.968 -393.731)"/>
      <g id="组_1" data-name="组 1" class="cls-12" transform="translate(28.12 196.446)">
        <path id="路径_79" data-name="路径 79" d="M111.321,649.9a11.062,11.062,0,0,0-.237-2.552,30.118,30.118,0,0,1-1.167-4.962c-.095,1.859.773,3.646,1.167,5.5A10.937,10.937,0,0,1,111.321,649.9Z" transform="translate(-108.171 -627.426)"/>
        <path id="路径_80" data-name="路径 80" d="M124.264,698.7c.146-.266.3-.529.456-.784-2.093,1.006-3.314,3.19-4.4,5.243a7.325,7.325,0,0,0-1.181,3.8,8.776,8.776,0,0,1,1.181-3.282C121.325,701.8,122.444,699.79,124.264,698.7Z" transform="translate(-114.025 -662.709)"/>
        <path id="路径_81" data-name="路径 81" d="M114.1,718.482a1.272,1.272,0,0,1-.7,1.046,1.305,1.305,0,0,1-1.458-.5,3.8,3.8,0,0,1-.587-1.51,27.029,27.029,0,0,1-.828-5.4,23.9,23.9,0,0,0,.828,5.936,3.8,3.8,0,0,0,.587,1.51,1.3,1.3,0,0,0,1.458.5,1.436,1.436,0,0,0,.707-1.5Z" transform="translate(-108.566 -671.732)"/>
        <path id="路径_82" data-name="路径 82" d="M144.633,632.27a5.742,5.742,0,0,1-.193,1.265,10.593,10.593,0,0,0-.751,3.329,18.177,18.177,0,0,1,.751-2.8A5.969,5.969,0,0,0,144.633,632.27Z" transform="translate(-129.625 -620.996)"/>
        <path id="路径_83" data-name="路径 83" d="M120.1,604.683a12.2,12.2,0,0,0-.1-1.9c-.062-.463-.139-.955-.164-1.437a10.887,10.887,0,0,0,.164,1.973A12.122,12.122,0,0,1,120.1,604.683Z" transform="translate(-114.473 -601.35)"/>
        <path id="路径_84" data-name="路径 84" d="M149.061,655.01v-.04a14.077,14.077,0,0,1-.871,1.8,2.523,2.523,0,0,0-.146,1.163,2.3,2.3,0,0,1,.146-.627C148.474,656.527,149.207,655.834,149.061,655.01Z" transform="translate(-132.39 -635.419)"/>
        <path id="路径_85" data-name="路径 85" d="M107.659,687.5c-.073-2.009-1.553-3.646-2.275-5.528a3.555,3.555,0,0,1-.233-.915,3.045,3.045,0,0,0,.233,1.458c.729,1.841,2.151,3.464,2.268,5.429C107.659,687.794,107.662,687.649,107.659,687.5Z" transform="translate(-105.139 -651.997)"/>
        <path id="路径_86" data-name="路径 86" d="M149.428,617.388c-1.189-1.823-4.8-5.024-7.292-4.135a1.757,1.757,0,0,0-1.094,1.167,1.28,1.28,0,0,0-.022.627.667.667,0,0,1,.022-.091,1.757,1.757,0,0,1,1.094-1.167c2.483-.89,6.1,2.308,7.292,4.135a13.2,13.2,0,0,1,1.932,7.033A13.492,13.492,0,0,0,149.428,617.388Z" transform="translate(-127.919 -608.816)"/>
        <path id="路径_87" data-name="路径 87" d="M173.4,635.436c-.259,1.892-3,2.272-3.956,3.923v.547c.952-1.659,3.7-2.038,3.963-3.934a2.409,2.409,0,0,0,0-.561A.147.147,0,0,1,173.4,635.436Z" transform="translate(-145.995 -622.991)"/>
        <path id="路径_88" data-name="路径 88" d="M181.373,614.542c-.565,1.575-1.874,2.968-1.765,4.641v.073c.12-1.458,1.243-2.753,1.754-4.182a5.149,5.149,0,0,0,.292-2.035A5.058,5.058,0,0,1,181.373,614.542Z" transform="translate(-152.452 -608.778)"/>
        <path id="路径_89" data-name="路径 89" d="M142.575,704a.864.864,0,0,1-.543.365c-.8.084-.66-1.349-1.3-1.823,0,.19.029.365.04.572.591.514.485,1.874,1.262,1.794a.864.864,0,0,0,.543-.365,4.678,4.678,0,0,0,.762-3.19A4.2,4.2,0,0,1,142.575,704Z" transform="translate(-127.753 -664.889)"/>
        <path id="路径_90" data-name="路径 90" d="M132.978,709.386a1.885,1.885,0,0,1-1.911,1.309l-.284-1.87a5.429,5.429,0,0,1-1.881,1.2c-.036.19-.073.383-.1.572a5.443,5.443,0,0,0,1.983-1.24l.284,1.87a1.9,1.9,0,0,0,1.911-1.309,4.2,4.2,0,0,0,.222-1.692A3.556,3.556,0,0,1,132.978,709.386Z" transform="translate(-120.173 -669.26)"/>
        <path id="路径_91" data-name="路径 91" d="M147.864,683.211a9.419,9.419,0,0,0-.073,1.513,7.165,7.165,0,0,1,.073-.977c.3-2.046,1.728-3.92,1.6-5.947C149.352,679.627,148.138,681.348,147.864,683.211Z" transform="translate(-132.237 -649.925)"/>
      </g>
      <path id="路径_92" data-name="路径 92" class="cls-4" d="M602.594,261.825v35.8c0,1.889-1.823,3.427-4.073,3.427h-86.2c-2.25,0-4.073-1.539-4.073-3.427v-35.8A4.1,4.1,0,0,1,512.323,258h86.2A4.1,4.1,0,0,1,602.594,261.825Z" transform="translate(-333.151 -186.744)"/>
      <path id="路径_93" data-name="路径 93" class="cls-5" d="M602.594,262.073v9.987H508.25v-9.987A4.073,4.073,0,0,1,512.323,258h86.2A4.073,4.073,0,0,1,602.594,262.073Z" transform="translate(-333.151 -186.744)"/>
      <circle id="椭圆_14" data-name="椭圆 14" class="cls-4" cx="2.724" cy="2.724" r="2.724" transform="translate(177.549 75.562)"/>
      <circle id="椭圆_15" data-name="椭圆 15" class="cls-4" cx="2.724" cy="2.724" r="2.724" transform="translate(185.472 75.562)"/>
      <circle id="椭圆_16" data-name="椭圆 16" class="cls-4" cx="2.724" cy="2.724" r="2.724" transform="translate(193.395 75.562)"/>
      <circle id="椭圆_17" data-name="椭圆 17" class="cls-2" cx="10.647" cy="10.647" r="10.647" transform="translate(240.215 88.933)"/>
      <rect id="矩形_16" data-name="矩形 16" class="cls-2" width="44.898" height="1.586" transform="translate(228.15 93.997) rotate(180)"/>
      <rect id="矩形_17" data-name="矩形 17" class="cls-5" width="44.898" height="1.586" transform="translate(228.15 97.862) rotate(180)"/>
      <rect id="矩形_18" data-name="矩形 18" class="cls-5" width="44.898" height="1.586" transform="translate(228.15 101.727) rotate(180)"/>
      <rect id="矩形_19" data-name="矩形 19" class="cls-5" width="44.898" height="1.586" transform="translate(228.15 105.585) rotate(180)"/>
      <path id="路径_94" data-name="路径 94" class="cls-13" d="M290.237,276.555c2.512,1.685,6.322.882,6.322.882s5.75-2.724,7.453-2.724,5.834-1.685,5.834-1.685l-.139-1.134-.412-3.42c2.622,2.042,5.531,1.338,6.964,1.189,1.539-.16,9.764-5.05,10.552-5.371a2.068,2.068,0,0,0,.729-.729h0a18.433,18.433,0,0,0,1.389-2.552h0c.518-.452.893-.817.864-.9a5.937,5.937,0,0,1,.507-1.345,6.6,6.6,0,0,0,2.494-.9,2.187,2.187,0,0,0,.809-1.765s8.021-8.094,6.968-11.46,2.592-3.446,2.592-3.446,5.593-2.4,6.37-3.847c.481-.886,4.674-2.833,7.828-4.2l.39-.168c1.225,2.687,7.445.62,8.671-.518,1.294-1.2,5.1-1.761,5.1-1.761s.16-15.708,1.378-17.713c.576-.948.729-4.051.7-7.044v-.321c1.7-.332,5.754-1.094,7.635-1.287a7.346,7.346,0,0,0,3.387-1.586l.109.142a2.352,2.352,0,0,0,1.039.171,1.623,1.623,0,0,0,.908-.171c.729-.4,3.4-1.2,4.375-1.6s-.164-3.282-.893-3.847-1.214-1.28-.809-1.6-.974-1.123-1.783-1.283a26.421,26.421,0,0,1-3.241-1.283s-.89-1.841-2.348-1.841a7.505,7.505,0,0,1-3.405-1.458c-.08-.642-1.619-.729-1.619-.729s-5.834-4.485-6.807-3.927-3.646-.879-3.646-.879-3.282.365-4.051-.237h0a.923.923,0,0,0-.2-.543,5.76,5.76,0,0,0-1.823-1.907,7.533,7.533,0,0,0,.091-1.156,4.6,4.6,0,0,0-.018-.5.646.646,0,0,0,0-.084c.04-.365.077-.751.117-1.127a2.311,2.311,0,0,1,.281-1.061c.139-.211.339-.365.492-.58a1.323,1.323,0,0,0,.1-.15l.026-.044c.022-.04.04-.08.058-.12a.2.2,0,0,0,.018-.04,1.689,1.689,0,0,0,.106-.343s0,0,0-.029.018-.106.022-.16v-.022a3.42,3.42,0,0,0-.182-1.375,9.188,9.188,0,0,1-.664-2.279,7.4,7.4,0,0,0-.04-1.174,2.993,2.993,0,0,0-1.965-1.8,10.973,10.973,0,0,1-2.764-1.8c-.817-.634-2.166-.314-3.2-.248a27.834,27.834,0,0,0-6.88,1.59,6.833,6.833,0,0,0-2.406,1.192,2.658,2.658,0,0,0-.879,1.488h0a1.892,1.892,0,0,0-.029.4v.036a.573.573,0,0,0,.018.153.216.216,0,0,0,0,.051,1.726,1.726,0,0,0,.044.186h0c.091.3.266.561.365.857a1.981,1.981,0,0,1,.055.2v.022l.033.193h0a8.465,8.465,0,0,1-.3,2.231,3.087,3.087,0,0,0-.036.321h0a3.875,3.875,0,0,0,.109,1.28h0a.592.592,0,0,0,.047.15l.022.066c0,.044.033.084.047.128a.831.831,0,0,1,.036.084c0,.036.033.073.051.109s.033.062.047.091a.98.98,0,0,0,.058.1l.058.095.058.088.073.091c.022.026.04.055.066.08l.084.088.066.069.1.084.069.058.124.084.062.04a1.552,1.552,0,0,0,.2.106c.467.215,1.05.288,1.334.7a.988.988,0,0,1,.135.321v.153a6.454,6.454,0,0,0,.04.7,3.3,3.3,0,0,0,.018.365,1.177,1.177,0,0,0,.08.273,7.292,7.292,0,0,0,2.457,4.127c.026.124.051.27.084.434a8.073,8.073,0,0,1-2.359,1.232c-1.951.638-4.693,3.252-4.693,3.252s-1.367,9.845-1.7,11.059a53.959,53.959,0,0,0-.572,5.852,13.5,13.5,0,0,1-.809,2.884,8.4,8.4,0,0,0,.678,5.36,4.44,4.44,0,0,1-.6.97c-1.943,2.246-7.777,2.166-9.724,2.166a2.456,2.456,0,0,0-2.417,1.258c-3.562,1.01-15.095,4.3-16.462,4.9-1.619.707-2.512,7.7-2.512,7.7s-3.4,11.62-3.241,13.152-1.134,5.761-1.134,5.761,0,4.795-.551,5.123h-.018c-.565.241-.485,2.552-.485,2.552s.416.124,1.068.288a18.541,18.541,0,0,1-1.313,3.985c-.252-.321-.5-.456-.645-.08-.4,1.017-6.483,8.229-8.021,8.229a4.674,4.674,0,0,0-2.742,1.415C289.292,274.532,288.924,275.677,290.237,276.555Zm27.875-41.766a67.557,67.557,0,0,0,14.264-.489,16.528,16.528,0,0,1-1.054,2.811,28.562,28.562,0,0,0-1.867,6.333c0,.963-2.188,9.214-2.833,9.615a2.4,2.4,0,0,0-.707,1.021,9.613,9.613,0,0,0-.427,1.225,4.924,4.924,0,0,0,.055.591c-.485.445-1,.912-1.458,1.324h0a32.143,32.143,0,0,0-3.85,2.509c-.959.875-5.509,1.962-5.509,1.962a28,28,0,0,0-3.282,1.663c-1.4.85-2.811,1.925-3.179,2.986.16-1.79.419-3.945.591-5.32h.259c2.272-.139,1.932-2.308,1.823-2.844a1.037,1.037,0,0,0-.029-.12c1.623-1.765,5.269-14.905,4.78-16.349a2.584,2.584,0,0,1,.6-2.724,3.267,3.267,0,0,0,.051-2.487C315.931,235.613,318.111,234.789,318.111,234.789Zm55.7-35.367-.43.106v-.091a2.226,2.226,0,0,0,.43.011Zm-23.543-12.091c-.066.08-.131.157-.2.233l-.084.087v-.445Zm-8.116,15.547.029.452s-.044.273-.128.729Zm37.238-4.477-1.415.241c.2-.073.4-.157.591-.248a1.341,1.341,0,0,1,.448-.12,2.41,2.41,0,0,1,.529.113.727.727,0,0,0-.153.04Z" transform="translate(-194.084 -129.259)"/>
      <path id="路径_95" data-name="路径 95" class="cls-14" d="M389.494,406.765a30.7,30.7,0,0,0-1.546,3.606c.08.237-3.5,3.1-3.5,3.1l-3.9-2.786.4-1.907s4.375-3.941,4.693-4.4S389.494,406.765,389.494,406.765Z" transform="translate(-252.012 -279.723)"/>
      <path id="路径_96" data-name="路径 96" class="cls-10" d="M343.2,423.626c2.705,2.625,5.888,1.823,7.4,1.67s9.582-5.01,10.359-5.331a2.064,2.064,0,0,0,.707-.729h0a18.2,18.2,0,0,0,1.367-2.523c-.055,0-2.7.769-3.365,0,0,0-1.116-1.367-1.353-1.367s-.018-2.4-.018-2.4a30.987,30.987,0,0,0-3.8,2.476c-.955.875-5.407,1.947-5.407,1.947a27.321,27.321,0,0,0-3.2,1.652C343.78,420.319,341.669,422.135,343.2,423.626Z" transform="translate(-227.949 -285.197)"/>
      <path id="路径_97" data-name="路径 97" class="cls-8" d="M343.2,434.186c2.705,2.625,5.888,1.823,7.4,1.67s9.582-5.01,10.359-5.331a2.064,2.064,0,0,0,.707-.729c-.941-.561-7.088,3.347-8.809,4.062s-6.074.321-8.539-.729c-1.232-.514,0-2.1,1.571-3.559C343.78,430.879,341.669,432.695,343.2,434.186Z" transform="translate(-227.949 -295.757)"/>
      <path id="路径_98" data-name="路径 98" class="cls-14" d="M331.136,417.525s-1.134,8.51-.846,9.626-7.11-3.818-7.11-3.818S325.769,418,325,416.77,331.136,417.525,331.136,417.525Z" transform="translate(-215.56 -287.369)"/>
      <path id="路径_99" data-name="路径 99" class="cls-10" d="M325.574,349.059s4.612,1.353,7.157,1.192c2.231-.139,1.9-2.29,1.779-2.822a1.031,1.031,0,0,0-.029-.12c1.593-1.75,5.17-14.792,4.693-16.225a2.577,2.577,0,0,1,.587-2.7,3.258,3.258,0,0,0,.051-2.468c-.4-.875,1.75-1.67,1.75-1.67a65.467,65.467,0,0,0,14-.485,16.37,16.37,0,0,1-1.035,2.793,28.426,28.426,0,0,0-1.823,6.282c0,.955-2.148,9.148-2.782,9.546a2.378,2.378,0,0,0-.693,1.01,9.524,9.524,0,0,0-.419,1.214c.237,5.331,6.282,3.263,7.157,2.552a2.328,2.328,0,0,0,.339-.346,2.213,2.213,0,0,0,.456-1.4s7.872-8.022,6.84-11.372,2.552-3.42,2.552-3.42,5.487-2.385,6.249-3.818c.47-.879,4.587-2.811,7.686-4.171,1.94-.85,3.482-1.458,3.482-1.458l-1.291-4.627-1.017-3.646-1.914-.729-6.118-2.3-10.986-1.51-1.006.131-10.676,1.378s-15.6,4.437-17.177,5.141-2.465,7.657-2.465,7.657-3.34,11.533-3.183,13.049-1.127,5.7-1.127,5.7,0,4.74-.54,5.079h-.018C325.5,346.744,325.574,349.059,325.574,349.059Z" transform="translate(-217.079 -218.736)"/>
      <path id="路径_100" data-name="路径 100" class="cls-8" d="M369.43,340.967a65.467,65.467,0,0,0,14-.485c.478-1.5,7.161-5.637,7.161-5.637C385.1,333.492,369.43,340.967,369.43,340.967Z" transform="translate(-244.947 -235.466)"/>
      <path id="路径_101" data-name="路径 101" class="cls-3" d="M389.28,405.657c.237,5.331,6.282,3.263,7.157,2.552a2.33,2.33,0,0,0,.339-.346c-2.115.78-5.859,1.378-7.077-3.413A9.527,9.527,0,0,0,389.28,405.657Z" transform="translate(-257.559 -279.796)"/>
      <path id="路径_102" data-name="路径 102" class="cls-3" d="M325.574,415.546s4.612,1.353,7.157,1.192c2.231-.139,1.9-2.29,1.779-2.822a41.425,41.425,0,0,1-8.441-.926h-.018C325.5,413.231,325.574,415.546,325.574,415.546Z" transform="translate(-217.079 -285.222)"/>
      <path id="路径_103" data-name="路径 103" class="cls-8" d="M389.28,405.657c.237,5.331,6.282,3.263,7.157,2.552a2.33,2.33,0,0,0,.339-.346c-2.115.78-5.859,1.378-7.077-3.413A9.527,9.527,0,0,0,389.28,405.657Z" transform="translate(-257.559 -279.796)"/>
      <path id="路径_104" data-name="路径 104" class="cls-8" d="M325.574,415.546s4.612,1.353,7.157,1.192c2.231-.139,1.9-2.29,1.779-2.822a41.425,41.425,0,0,1-8.441-.926h-.018C325.5,413.231,325.574,415.546,325.574,415.546Z" transform="translate(-217.079 -285.222)"/>
      <path id="路径_105" data-name="路径 105" class="cls-10" d="M292.92,443.45c2.465,1.67,6.2.875,6.2.875s5.644-2.705,7.314-2.705,5.735-1.659,5.735-1.659l-.139-1.127-.656-5.4s-6.2-.157-6.443-.729c0,0-1.116-2.738-1.513-1.728s-6.362,8.171-7.872,8.171a4.54,4.54,0,0,0-2.694,1.4C291.994,441.441,291.629,442.575,292.92,443.45Z" transform="translate(-195.797 -296.511)"/>
      <path id="路径_106" data-name="路径 106" class="cls-8" d="M353.07,336.65s5.17,3.282,3.737,3.978S353.07,336.65,353.07,336.65Z" transform="translate(-234.552 -236.717)"/>
      <path id="路径_107" data-name="路径 107" class="cls-8" d="M347.18,353.89s4.452,4.226,2.782,4.339S347.18,353.89,347.18,353.89Z" transform="translate(-230.809 -247.671)"/>
      <path id="路径_108" data-name="路径 108" class="cls-8" d="M334.09,390.75s2.261,4.251,1.407,4.988S334.09,390.75,334.09,390.75Z" transform="translate(-222.492 -271.091)"/>
      <path id="路径_109" data-name="路径 109" class="cls-8" d="M402.267,397.665c-.795.795,7.558-2.625,5.648-2.786S402.267,397.665,402.267,397.665Z" transform="translate(-265.777 -273.711)"/>
      <path id="路径_110" data-name="路径 110" class="cls-14" d="M448.17,220.129l.266-.04c.988-.149,4.576-.711,7.792-1.411.784-.171,1.542-.346,2.239-.532,2.465-.645,4.117-1.342,3.066-1.911a5.633,5.633,0,0,1-2.519-3.318c-.036-.117-.073-.23-.1-.339a8.719,8.719,0,0,1-.324-1.823s-8.984-3.183-7.234,0a3.016,3.016,0,0,1-.532,3.726,6.957,6.957,0,0,1-1.936,1.458Z" transform="translate(-294.977 -155.826)"/>
      <path id="路径_111" data-name="路径 111" class="cls-8" d="M440.385,232.17s-3.212,2.308-6.5.4-7.562,16.863-7.562,16.863l-4.456,10.975s-2.884,2.385.7,3.42,11.558-1.035,13.578,1.987a8.8,8.8,0,0,0,6.217,3.486c.365,0,1.907-11.376,1.907-11.376l.394-16.462Z" transform="translate(-277.569 -170.332)"/>
      <path id="路径_112" data-name="路径 112" class="cls-15" d="M422.97,262.082c3.591,1.035,11.555-1.032,13.578,1.987a7.774,7.774,0,0,0,3.42,2.756,8.947,8.947,0,0,0,2.822.729c.051,0,.128-.208.215-.569.558-2.3,1.692-10.8,1.692-10.8l.394-16.429-3.781-8.189-.514-1.134a6.881,6.881,0,0,1-1.637.795,5.768,5.768,0,0,1-4.864-.4c-.963-.562-2.013.66-3.015,2.662-2.417,4.827-4.561,14.2-4.561,14.2l-4.452,10.975a3.829,3.829,0,0,0-.3.292C421.33,259.617,420.145,261.265,422.97,262.082Z" transform="translate(-277.821 -169.226)"/>
      <path id="路径_113" data-name="路径 113" class="cls-8" d="M470.941,254.929a20.727,20.727,0,0,0-.106,4.189,49.124,49.124,0,0,0,.729,5.914,2.184,2.184,0,0,0,.1.365c1.94-.85,3.482-1.458,3.482-1.458l-1.291-4.627c.558-2.3,1.692-10.8,1.692-10.8l.419-16.462-3.781-8.189c2.465-.645,4.116-1.342,3.066-1.911a5.833,5.833,0,0,1-2.622-3.646,13.519,13.519,0,0,1-2.261,2.432l-.051.04-.284,2.775-.088.853-.186,1.772s.875,20.914,1.513,22.11.317,3.5-.241,6.2C471,254.608,470.974,254.765,470.941,254.929Z" transform="translate(-308.695 -161.519)"/>
      <path id="路径_114" data-name="路径 114" class="cls-16" d="M471.976,245.319c-.558,2.7-.08,7.157.554,10.574s7.4,1.192,8.67,0,5.01-1.75,5.01-1.75.16-15.587,1.353-17.578c.565-.941.7-4.011.689-6.993,0-2.669-.142-5.254-.193-6.133v-.314s5.17-8.751,5.1-9.385-1.59-.729-1.59-.729-5.728-4.456-6.683-3.9-3.577-.875-3.577-.875-3.325.365-4.011-.263a.365.365,0,0,1-.12-.3c.077-1.017-3.391-3.19-3.5-3.26,2.917,2.633-1.823,6.683-2.341,7.125l-.051.044-.554,5.4s.875,20.918,1.509,22.11S472.53,242.613,471.976,245.319Z" transform="translate(-309.318 -152.7)"/>
      <circle id="椭圆_18" data-name="椭圆 18" class="cls-3" cx="0.397" cy="0.397" r="0.397" transform="translate(162.567 69.499)"/>
      <path id="路径_115" data-name="路径 115" class="cls-8" d="M472.74,212.475l2.414,2.337,3.544-5.91a.365.365,0,0,1-.124-.292c.08-1.021-3.387-3.194-3.5-3.26C478,207.979,473.276,212.03,472.74,212.475Z" transform="translate(-310.588 -153.291)"/>
      <circle id="椭圆_19" data-name="椭圆 19" class="cls-8" cx="0.397" cy="0.397" r="0.397" transform="translate(163.362 82.224)"/>
      <circle id="椭圆_20" data-name="椭圆 20" class="cls-3" cx="0.397" cy="0.397" r="0.397" transform="translate(163.362 82.063)"/>
      <path id="路径_116" data-name="路径 116" class="cls-16" d="M472.3,211.585l2.417,2.341,3.54-5.91a.365.365,0,0,1-.12-.3c.077-1.017-3.391-3.19-3.5-3.26C477.561,207.1,472.836,211.147,472.3,211.585Z" transform="translate(-310.309 -152.725)"/>
      <rect id="矩形_20" data-name="矩形 20" class="cls-10" width="5.535" height="11.697" rx="1.7" transform="translate(165.021 81.25) rotate(-178.69)"/>
      <rect id="矩形_21" data-name="矩形 21" class="cls-8" width="5.535" height="11.697" rx="1.7" transform="translate(165.021 81.25) rotate(-178.69)"/>
      <rect id="矩形_22" data-name="矩形 22" class="cls-10" width="5.535" height="11.697" rx="1.7" transform="translate(165.052 81.508) rotate(-178.69)"/>
      <circle id="椭圆_21" data-name="椭圆 21" class="cls-16" cx="0.871" cy="0.871" r="0.871" transform="translate(161.689 72.31)"/>
      <path id="路径_117" data-name="路径 117" class="cls-8" d="M391.68,253.7c1.987.875,15.029-1.429,16.94-1.987s4.693-4.853,3.34-7.952a7.25,7.25,0,0,1,.478-6.125s2.862-6.122,3.5-7.318a55.943,55.943,0,0,0,2.148-5.247.467.467,0,0,0-.113-.365,13.9,13.9,0,0,0-2.509-2.188c-.561.2-.634-1.4-.613-2.589,0-.66.055-1.189.055-1.189s-.266.27-.7.634c-.157.131-.335.281-.536.43a8.225,8.225,0,0,1-2.5,1.371c-1.911.562-4.612,3.172-4.612,3.172l.795,12.211s-1.823,11.489-3.741,13.713-7.635,2.148-9.542,2.148A2.374,2.374,0,0,0,391.68,253.7Z" transform="translate(-259.084 -161.798)"/>
      <path id="路径_118" data-name="路径 118" class="cls-16" d="M391.24,252.389c1.987.875,15.033-1.429,16.94-1.987s4.693-4.849,3.34-7.952a7.247,7.247,0,0,1,.478-6.125s2.862-6.122,3.5-7.314a56.574,56.574,0,0,0,2.148-5.25.481.481,0,0,0-.113-.365,14.012,14.012,0,0,0-2.512-2.188c-.561.2-.631-1.4-.609-2.585,0-.664.051-1.192.051-1.192s-.263.27-.693.634c-.16.135-.339.281-.536.43a8.248,8.248,0,0,1-2.509,1.371c-1.907.565-4.612,3.172-4.612,3.172l.795,12.215s-1.823,11.485-3.737,13.713-7.635,2.144-9.546,2.144A2.369,2.369,0,0,0,391.24,252.389Z" transform="translate(-258.804 -160.966)"/>
      <path id="路径_119" data-name="路径 119" class="cls-8" d="M450.57,218.33s.073.419.2,1.061c.427,2.188,1.458,6.953,2.188,6.771a6.665,6.665,0,0,0,2.115-1.878,14.012,14.012,0,0,0-2.512-2.188c-.562.2-.631-1.4-.609-2.585l-.642-.554Z" transform="translate(-296.502 -161.538)"/>
      <path id="路径_120" data-name="路径 120" class="cls-16" d="M451,217.45s.073.419.2,1.065c.427,2.188,1.458,6.953,2.188,6.767a6.6,6.6,0,0,0,2.115-1.874,14.012,14.012,0,0,0-2.512-2.188c-.561.2-.631-1.4-.609-2.585l-.653-.551Z" transform="translate(-296.775 -160.979)"/>
      <path id="路径_121" data-name="路径 121" class="cls-14" d="M430.938,273.293s3.974-.795,5.1-2.552,8.685-3.263,7.763-1.433-7.781,7.821-7.781,7.821l-2.964,4.244-3.963-1-1.666-3.241Z" transform="translate(-281.799 -193.399)"/>
      <path id="路径_122" data-name="路径 122" class="cls-8" d="M455.049,294.13s-3.85,1.433-4.43,3.34S455.049,294.13,455.049,294.13Z" transform="translate(-296.503 -209.7)"/>
      <path id="路径_123" data-name="路径 123" class="cls-8" d="M461.527,300.23s.365,1.987-4.477,1.823Z" transform="translate(-300.619 -213.576)"/>
      <path id="路径_124" data-name="路径 124" class="cls-8" d="M516.644,230.15l1.75-.16a7.34,7.34,0,0,0,3.34,1.433c1.433,0,2.3,1.823,2.3,1.823a25.441,25.441,0,0,0,3.183,1.273c.795.157,2.148.955,1.75,1.272s.077,1.035.795,1.593,1.823,3.42.875,3.818-3.581,1.192-4.3,1.59a1.973,1.973,0,0,1-1.59,0s-4.215-5.487-6.362-4.456a13.9,13.9,0,0,1-5.1,1.036L511,234.522Z" transform="translate(-334.898 -168.947)"/>
      <path id="路径_125" data-name="路径 125" class="cls-16" d="M424.27,258.123a2.133,2.133,0,0,0,1.48,1.032,11.237,11.237,0,0,0,4.634-.43s-8.021-2.552-.3-8.751h-2.067l-.689-.263.317-1.648.452-14.854-1.681-.379s-1.345,9.783-1.666,10.975a54.1,54.1,0,0,0-.561,5.8,13.357,13.357,0,0,1-.795,2.862A8.336,8.336,0,0,0,424.27,258.123Z" transform="translate(-279.12 -170.751)"/>
      <path id="路径_126" data-name="路径 126" class="cls-8" d="M427,287.542a2.14,2.14,0,0,0,1.484,1.032,11.227,11.227,0,0,0,4.631-.43s-8.021-2.552-.3-8.751h-2.071l-.689-.263C428.922,281.154,427.139,284.723,427,287.542Z" transform="translate(-281.526 -200.17)"/>
      <path id="路径_127" data-name="路径 127" class="cls-17" d="M426.11,287.542a2.133,2.133,0,0,0,1.48,1.032,11.238,11.238,0,0,0,4.634-.43s-8.021-2.552-.3-8.751h-2.067l-.689-.263C428.039,281.154,426.256,284.723,426.11,287.542Z" transform="translate(-280.96 -200.17)"/>
      <path id="路径_128" data-name="路径 128" class="cls-16" d="M426.11,287.542a2.133,2.133,0,0,0,1.48,1.032,11.238,11.238,0,0,0,4.634-.43s-8.021-2.552-.3-8.751h-2.067l-.689-.263C428.039,281.154,426.256,284.723,426.11,287.542Z" transform="translate(-280.96 -200.17)"/>
      <path id="路径_129" data-name="路径 129" class="cls-8" d="M455.44,214.474a7.249,7.249,0,0,0,8.193-1.557c-.036-.117-.073-.23-.1-.339a8.717,8.717,0,0,1-.324-1.823s-8.984-3.183-7.234,0A3,3,0,0,1,455.44,214.474Z" transform="translate(-299.596 -155.826)"/>
      <path id="路径_130" data-name="路径 130" class="cls-14" d="M443.81,191.881v.069a4.017,4.017,0,0,0,.04.7,6.558,6.558,0,0,0,.1.653,7.238,7.238,0,0,0,13.943.933c.047-.139.095-.281.131-.423a7.178,7.178,0,0,0,.263-1.929,4.552,4.552,0,0,0-.018-.5,7.238,7.238,0,0,0-14.457.5Z" transform="translate(-292.207 -140.143)"/>
      <path id="路径_131" data-name="路径 131" class="cls-8" d="M443.81,191.938a3.129,3.129,0,0,1,.04.7,3.255,3.255,0,0,0,.018.365,1.065,1.065,0,0,0,.08.273,1.352,1.352,0,0,0,1.874.689,2.009,2.009,0,0,0,.565-.729c.671-1.243,1.6-2.673,3.063-2.7a7.517,7.517,0,0,1,1.823.408,1.929,1.929,0,0,0,1.772-.241c.343-.314.507-.853.974-.966s.89.317,1.094.729a2.2,2.2,0,0,0,.813,1.123c.193.095.416.12.605.222.864.474.467,2.133,1.364,2.4a.764.764,0,0,0,.087.022l.044-.445c.08-.809.164-1.615.244-2.428a7.238,7.238,0,0,0-14.457.5Z" transform="translate(-292.207 -140.13)"/>
      <path id="路径_132" data-name="路径 132" class="cls-10" d="M451.419,171.042c.85.365,1.736.915,1.925,1.783a6.932,6.932,0,0,1,.04,1.167,9.344,9.344,0,0,0,.653,2.261,2.516,2.516,0,0,1-.153,2.264c-.15.2-.346.365-.481.576a2.327,2.327,0,0,0-.277,1.054l-.394,3.912c-1.01-.186-.561-1.936-1.458-2.425-.186-.1-.408-.128-.6-.222-.43-.215-.6-.707-.813-1.123s-.631-.842-1.094-.729-.627.649-.97.966a1.955,1.955,0,0,1-1.772.237,7.137,7.137,0,0,0-1.823-.408c-1.458.026-2.4,1.458-3.063,2.7a1.98,1.98,0,0,1-.565.729,1.362,1.362,0,0,1-1.954-.963c-.066-.467.077-.988-.19-1.382s-.853-.481-1.309-.693a2.934,2.934,0,0,1-1.331-3.2,5.576,5.576,0,0,0,.2-2.622c-.1-.292-.27-.558-.365-.85a2.3,2.3,0,0,1,.817-2.3,6.676,6.676,0,0,1,2.363-1.185A27.006,27.006,0,0,1,445.56,169c1.01-.066,2.337-.383,3.139.248A10.453,10.453,0,0,0,451.419,171.042Z" transform="translate(-286.959 -130.107)"/>
      <circle id="椭圆_22" data-name="椭圆 22" class="cls-8" cx="0.397" cy="0.397" r="0.397" transform="translate(162.17 63.213)"/>
      <circle id="椭圆_23" data-name="椭圆 23" class="cls-3" cx="0.397" cy="0.397" r="0.397" transform="translate(162.17 63.056)"/>
      <circle id="椭圆_24" data-name="椭圆 24" class="cls-8" cx="0.397" cy="0.397" r="0.397" transform="translate(164.715 88.185)"/>
      <circle id="椭圆_25" data-name="椭圆 25" class="cls-3" cx="0.397" cy="0.397" r="0.397" transform="translate(164.715 88.028)"/>
      <circle id="椭圆_26" data-name="椭圆 26" class="cls-8" cx="0.397" cy="0.397" r="0.397" transform="translate(163.362 94.788)"/>
      <circle id="椭圆_27" data-name="椭圆 27" class="cls-3" cx="0.397" cy="0.397" r="0.397" transform="translate(163.362 94.628)"/>
      <path id="路径_133" data-name="路径 133" class="cls-8" d="M438.982,254.27s-.875,5.94,0,6.975S438.982,254.27,438.982,254.27Z" transform="translate(-288.892 -184.374)"/>
      <path id="路径_134" data-name="路径 134" class="cls-8" d="M506.993,284.52a8.986,8.986,0,0,1,0,7.048c-1.67,3.449-2.705,4.853-2.148,7.055S506.993,284.52,506.993,284.52Z" transform="translate(-330.891 -203.594)"/>
      <path id="路径_135" data-name="路径 135" class="cls-8" d="M292.918,457.526c2.465,1.67,6.2.875,6.2.875s5.644-2.705,7.314-2.705,5.735-1.659,5.735-1.659l-.139-1.127c-1.648.317-5.393,1.076-5.834,1.458-.558.478-7.4,2.786-7.4,2.786s-4.656-.583-5.954-2.5C291.992,455.517,291.628,456.651,292.918,457.526Z" transform="translate(-195.795 -310.587)"/>
      <g id="组_2" data-name="组 2" class="cls-18" transform="translate(148.6 42.988)">
        <path id="路径_136" data-name="路径 136" d="M484.46,180.729v.04A.15.15,0,0,0,484.46,180.729Z" transform="translate(-466.635 -180.47)"/>
        <path id="路径_137" data-name="路径 137" d="M437.455,194.39c.456.208,1.032.284,1.309.689s.124.915.19,1.382a1.365,1.365,0,0,0,1.954.966,1.991,1.991,0,0,0,.565-.729c.667-1.24,1.6-2.669,3.063-2.694a7.682,7.682,0,0,1,1.823.4,1.939,1.939,0,0,0,1.772-.237c.343-.314.507-.853.97-.966s.893.314,1.094.729a2.157,2.157,0,0,0,.813,1.119c.193.095.416.124.6.226.893.489.445,2.235,1.458,2.425l.394-3.916a2.337,2.337,0,0,1,.277-1.054c.135-.208.332-.365.481-.572a1.75,1.75,0,0,0,.325-.842,2.016,2.016,0,0,1-.325,1.477c-.149.2-.346.365-.481.576a2.326,2.326,0,0,0-.277,1.054l-.394,3.912c-1.01-.186-.562-1.936-1.458-2.425-.186-.1-.408-.128-.6-.222-.43-.215-.6-.707-.813-1.123s-.631-.842-1.094-.729-.627.649-.97.966a1.955,1.955,0,0,1-1.772.237,7.136,7.136,0,0,0-1.823-.408c-1.458.026-2.4,1.458-3.063,2.7a1.98,1.98,0,0,1-.565.729,1.362,1.362,0,0,1-1.954-.963c-.066-.467.077-.988-.19-1.382s-.853-.481-1.309-.693a2.817,2.817,0,0,1-1.367-2.888A2.6,2.6,0,0,0,437.455,194.39Z" transform="translate(-435.892 -187.364)"/>
        <path id="路径_138" data-name="路径 138" d="M435.648,181.083c.091.292.263.558.365.85a2.552,2.552,0,0,1,.091,1.046,2.278,2.278,0,0,0-.091-.408c-.1-.292-.27-.558-.365-.85a1.787,1.787,0,0,1-.047-.831C435.615,180.956,435.63,181.018,435.648,181.083Z" transform="translate(-435.572 -180.737)"/>
      </g>
      <path id="路径_139" data-name="路径 139" class="cls-8" d="M482.752,264.546c1.823-.4,6.122-1.67,6.122-1.67l.769-.153c0-2.669-.142-5.254-.193-6.133h0a30.477,30.477,0,0,0-4.532,1.823c-.886.631-3.581.478-3.581.478a12.253,12.253,0,0,0-7.715,4.135C470.122,266.923,480.921,264.947,482.752,264.546Z" transform="translate(-310.708 -185.848)"/>
      <path id="路径_140" data-name="路径 140" class="cls-14" d="M500.6,255.086a1.061,1.061,0,0,1,.241,1.783,7.805,7.805,0,0,1-3.734,1.9c-2.253.226-7.657,1.313-8.215,1.422a.365.365,0,0,0-.084.022c-.448.131-4.375,1.276-6.082,1.652-1.823.4-12.648,2.392-9.148-1.506a12.364,12.364,0,0,1,7.657-4.131h.139c.408.022,2.72.1,3.519-.478a7.428,7.428,0,0,1,1.313-.656,25.348,25.348,0,0,1,5.378-1.55l3.741-.653a1.068,1.068,0,0,1,.631.08Z" transform="translate(-310.679 -183.487)"/>
      <path id="路径_141" data-name="路径 141" class="cls-16" d="M517.482,230.15l1.75-.16a7.34,7.34,0,0,0,3.34,1.433c1.433,0,2.308,1.823,2.308,1.823a25.339,25.339,0,0,0,3.179,1.273c.795.157,2.148.955,1.75,1.272s.08,1.035.795,1.593,1.823,3.42.875,3.818S527.9,242.39,527.2,242.8a1.973,1.973,0,0,1-1.59,0s-4.244-5.487-6.377-4.456a13.854,13.854,0,0,1-5.1,1.035l-2.308-4.853Z" transform="translate(-335.419 -168.947)"/>
      <path id="路径_142" data-name="路径 142" class="cls-2" d="M663.446,514.08s-3.165-.729-5.236,1.4c0,0,1.334,1.2,4.463-.128Z" transform="translate(-428.434 -349.378)"/>
      <path id="路径_143" data-name="路径 143" class="cls-2" d="M671.964,514.22s1.87,2.651.685,5.374c0,0-1.619-.777-1.571-4.178Z" transform="translate(-436.609 -349.543)"/>
      <path id="路径_144" data-name="路径 144" class="cls-2" d="M668.047,501.585s-1.119-2.432-6.457.51a2.874,2.874,0,0,0,2.844,1.644A3.476,3.476,0,0,0,668.047,501.585Z" transform="translate(-430.581 -340.914)"/>
      <path id="路径_145" data-name="路径 145" class="cls-2" d="M678.781,502.83s2.673-.124,2.523,5.965a2.875,2.875,0,0,1-2.771-1.765A3.474,3.474,0,0,1,678.781,502.83Z" transform="translate(-440.973 -342.305)"/>
      <path id="路径_146" data-name="路径 146" class="cls-2" d="M673.476,485.485s-1.214-4.233-6.826-1.655c0,0,.981,3.876,6.177,3.026Z" transform="translate(-433.796 -329.704)"/>
      <path id="路径_147" data-name="路径 147" class="cls-2" d="M677.5,469.314s-2.552-4.375-7.784-.82c0,0,1.488,4.04,7.259,2.286Z" transform="translate(-435.747 -319.604)"/>
      <path id="路径_148" data-name="路径 148" class="cls-2" d="M679.449,453.7s-3.026-4.058-8.229-.554c0,0,2.888,3.577,8.164,1.535Z" transform="translate(-436.7 -309.831)"/>
      <path id="路径_149" data-name="路径 149" class="cls-2" d="M682.227,437.867s-3.059-4.229-8.047-.755c0,0,3.515,3.792,7.981,1.692Z" transform="translate(-438.581 -299.679)"/>
      <path id="路径_150" data-name="路径 150" class="cls-2" d="M682.737,422.015s-3.15-5.393-7.817-2.188c0,0,3.453,4.685,7.752,3.176Z" transform="translate(-439.051 -288.92)"/>
      <path id="路径_151" data-name="路径 151" class="cls-2" d="M681.4,405.981s-3.365-5.367-7.934-1.732c0,0,4.091,4.74,7.872,2.669Z" transform="translate(-438.13 -278.866)"/>
      <path id="路径_152" data-name="路径 152" class="cls-2" d="M678.831,389.862s-4.065-5.1-8.021-3.442c0,0,4.233,5.415,8.135,4.74Z" transform="translate(-436.439 -268.128)"/>
      <path id="路径_153" data-name="路径 153" class="cls-2" d="M676.022,374.066s-4.678-6.224-7.752-4.463c0,0,3.427,4.813,8.043,5.6Z" transform="translate(-434.826 -257.455)"/>
      <path id="路径_154" data-name="路径 154" class="cls-2" d="M671.574,358.586s-4.113-5.1-7.434-4.131c0,0,3.46,5.243,7.927,5.67Z" transform="translate(-432.201 -247.952)"/>
      <path id="路径_155" data-name="路径 155" class="cls-2" d="M668.182,343.148s-4.594-4.933-6.782-4.266c0,0,3.2,5.353,6.928,5.305Z" transform="translate(-430.46 -238.096)"/>
      <path id="路径_156" data-name="路径 156" class="cls-2" d="M664.778,326.913s-3.854-5.783-6.2-5.509c0,0,2.228,5.075,6.144,6.064Z" transform="translate(-428.669 -227.024)"/>
      <path id="路径_157" data-name="路径 157" class="cls-2" d="M661.469,309.534s-3.449-4.466-5.469-4.594c0,0,2.552,5.834,5.528,5.98Z" transform="translate(-427.029 -216.569)"/>
      <path id="路径_158" data-name="路径 158" class="cls-2" d="M663.024,289.194l-3.012-9.024s-.729,7.927,3.362,10.683Z" transform="translate(-429.547 -200.83)"/>
      <path id="路径_159" data-name="路径 159" class="cls-2" d="M664.086,264.245s-.1-7.376.321-7.945c0,0-2.986,5.921-.514,11.186Z" transform="translate(-431.422 -185.664)"/>
      <path id="路径_160" data-name="路径 160" class="cls-2" d="M684.836,488.962s3.894-2.064,5.932,3.766c0,0-3.475,1.983-6.468-2.348Z" transform="translate(-445.011 -333.269)"/>
      <path id="路径_161" data-name="路径 161" class="cls-2" d="M690.557,472.124s4.74-1.783,6.563,4.281c0,0-3.7,2.188-7.07-2.815Z" transform="translate(-448.664 -322.64)"/>
      <path id="路径_162" data-name="路径 162" class="cls-2" d="M694.2,455.614s3.54-3.617,8.229.554c0,0-3.34,3.158-8.295.427Z" transform="translate(-451.257 -311.381)"/>
      <path id="路径_163" data-name="路径 163" class="cls-2" d="M696.442,438.821s3.6-3.785,8.073.328c0,0-3.989,3.282-8.135.609Z" transform="translate(-452.686 -300.626)"/>
      <path id="路径_164" data-name="路径 164" class="cls-2" d="M696.33,421.742s2.724-5.622,7.628-2.8c0,0-3.081,4.941-7.486,3.77Z" transform="translate(-452.654 -288.502)"/>
      <path id="路径_165" data-name="路径 165" class="cls-2" d="M694.43,404.863s2.713-5.721,7.679-2.651c0,0-3.511,5.178-7.507,3.577Z" transform="translate(-451.447 -277.799)"/>
      <path id="路径_166" data-name="路径 166" class="cls-2" d="M691.45,384.8s1.353-6.384,5.644-6.676c0,0-1.36,6.738-5.152,7.876Z" transform="translate(-449.554 -263.066)"/>
      <path id="路径_167" data-name="路径 167" class="cls-2" d="M689.23,368.847s.879-7.737,4.423-7.777c0,0-.518,5.888-4.1,8.9Z" transform="translate(-448.143 -252.233)"/>
      <path id="路径_168" data-name="路径 168" class="cls-2" d="M683.56,353.219s1.488-6.388,4.9-6.949c0,0-.835,6.224-4.674,8.554Z" transform="translate(-444.541 -242.829)"/>
      <path id="路径_169" data-name="路径 169" class="cls-2" d="M678.93,337.547s.485-6.723,2.607-7.577c0,0,.868,6.177-2.071,8.474Z" transform="translate(-441.599 -232.473)"/>
      <path id="路径_170" data-name="路径 170" class="cls-2" d="M675.16,322.811s.755-6.909,2.946-7.741c0,0,.365,5.531-2.658,8.215Z" transform="translate(-439.203 -223.005)"/>
      <path id="路径_171" data-name="路径 171" class="cls-2" d="M670.07,307.061s.39-5.63,2-6.851c0,0,1.094,6.271-1.28,8.021Z" transform="translate(-435.969 -213.563)"/>
      <path id="路径_172" data-name="路径 172" class="cls-2" d="M668.582,288.026l2.107-9.276s1.495,7.817-2.29,10.964Z" transform="translate(-434.908 -199.928)"/>
      <path id="路径_173" data-name="路径 173" class="cls-2" d="M666.958,266.775s4.219-6.045,4.186-6.775c0,0-.846,6.563-5.834,9.553Z" transform="translate(-432.945 -188.015)"/>
      <path id="路径_174" data-name="路径 174" class="cls-2" d="M668.479,257.13s4.182-8.714,5.834-9.33a11.383,11.383,0,0,0-6.133,9.053Z" transform="translate(-434.768 -180.263)"/>
      <path id="路径_175" data-name="路径 175" class="cls-3" d="M667.612,289.911l.248-.058c-2.359-10.06-2.691-16.408-.933-17.866l-.164-.2C664.9,273.325,665.2,279.6,667.612,289.911Z" transform="translate(-433.1 -195.506)"/>
      <path id="路径_176" data-name="路径 176" class="cls-3" d="M677.663,343.814l.365-.1c-.259-.926-.543-1.863-.846-2.793-2.625-8.073-4.82-15.569-6.166-21.3l-.306-.179c1.349,5.743,3.475,13.513,6.107,21.6C677.12,341.962,677.4,342.9,677.663,343.814Z" transform="translate(-436.376 -225.782)"/>
      <path id="路径_177" data-name="路径 177" class="cls-3" d="M658.247,438.573a49.947,49.947,0,0,0,9.367-14.424,55.677,55.677,0,0,0,4.459-16.951,64.844,64.844,0,0,0-2.4-23.208l-.31.314c4.795,17.082,1.484,31.218-2.21,39.615a49.761,49.761,0,0,1-9.265,14.289Z" transform="translate(-428.23 -266.796)"/>
      <path id="路径_178" data-name="路径 178" class="cls-19" d="M949.808,637.909l-10.089-14.628s-.186-3.621-.846-4.466-.142-2.731-.142-2.731.707-1.032.095-1.127-.095-2.4-.095-2.4l-.047-3.668s.565-3.529.095-4.375a1.382,1.382,0,0,1,.047-1.506s.565-2.02,0-2.552-.427-3.668-.284-6.162a9.328,9.328,0,0,0-.992-4.281c0-.376-3.723-4.044-3.723-4.375s-2.359-1.692-3.774-2.067-2.118-.66-2.071-.846-2.217-.941-2.217-.941-1.98-.142-2.735-1.13-3.063-1.273-3.128-1.283l-.044-.2a1.442,1.442,0,0,0-.04-.212c.175-.3.343-.605.492-.922.044-.095.088-.19.128-.288a4.011,4.011,0,0,0,2.323-.729,3.168,3.168,0,0,0,1.13-2.257,4.933,4.933,0,0,0-.554-2.5c-.412-.846-1.021-1.725-.809-2.643.091-.4.328-.729.448-1.134a2.972,2.972,0,0,0-.335-2.228c-.365-.682-.857-1.283-1.254-1.943a7.737,7.737,0,0,1-1-2.753,4.194,4.194,0,0,0-.365-1.5,2.768,2.768,0,0,0-.824-.835,8.281,8.281,0,0,0-5.068-1.535,24.645,24.645,0,0,1-3.839.233,14.151,14.151,0,0,1-2.239-.587c-1.582-.467-3.406-.66-4.784.244s-1.925,2.687-2.859,4.08c-.824,1.229-2.031,2.261-2.662,3.566l.022-.077a4.311,4.311,0,0,0-.365.952,6.781,6.781,0,0,0,.208,3.121,2.177,2.177,0,0,0,.762,1.393,4.338,4.338,0,0,0,1.648.321c-.022.091-.044.179-.062.27a10.556,10.556,0,0,0-.237,2.239,10.778,10.778,0,0,0,7.712,10.322v.288a7.127,7.127,0,0,1-.051.806h0s-4.74-.974-6.012-.314-3.774,1.174-4.149,1.55-1.32.095-2.169,2.3-.944,4.47-2.027,5.506-1.652,1.739-1.7,2.49.142.941-.281,1.178-1.039,1.221-.85,1.6a1.338,1.338,0,0,1-.518,1.411,1.572,1.572,0,0,0-.66,1.411s-.284,1.036-.944,1.273-1.094,1.787-1.094,1.787l-2.14,2.457-4.211-4.663a1.783,1.783,0,0,0-2.519-.131l-2.082,1.87a4.149,4.149,0,0,0-2.082,1.24,5.469,5.469,0,0,0-1.094,1.608l-1.141,1.025a2.891,2.891,0,0,0-.292,3.194l2.716,3v.026a4.791,4.791,0,0,0-2.625,1.068c-4.051,3.573-4.1,6.869-3.486,8.386s5.75,7.292,5.75,7.292a22.994,22.994,0,0,0,7.292,5.943h0l-.033.033q-.128.139-.252.3l-.069.088-.066.091-.077.113-.062.095c-.026.044-.055.088-.08.135l-.051.088-.1.182a.479.479,0,0,1-.029.062c-.04.084-.08.168-.117.255l-.04.1-.073.186a.52.52,0,0,1-.04.12c-.011.04-.044.12-.062.186s-.029.088-.04.131-.04.135-.058.208l-.033.128c-.026.109-.051.219-.073.335l-.022.135-.044.241-.022.171c0,.077-.022.153-.029.233a.818.818,0,0,1-.018.179l-.022.27v.62c-.095,5.5.226,6.3.226,6.3a3.06,3.06,0,0,0,2.5,1.878,3.282,3.282,0,0,0,.809-.044c2.45-.423,8.2-1.411,10.209-1.035a17.51,17.51,0,0,0,5.083-.412l.423-.08.3.933.933-.255c.3.175.569.332.791.456l.5.288c.93,3.158,4.707,2.078,4.707,2.078l.9.518,9.115.237a18.577,18.577,0,0,0,3.22,1.546,2.837,2.837,0,0,0,.459.1,20.249,20.249,0,0,0,2.534.047c.7,0,1.236-.047,1.236-.047s-.091-2.468-.222-5.236a74.633,74.633,0,0,0,8.426-.689c4.857-.853,6.888-5.272,7.631-7.635a21.845,21.845,0,0,1,.478,2.917,21.539,21.539,0,0,0,.755,2.552,8.646,8.646,0,0,0,1.035,1.881c3.584-1.225,1.415-3.059.664-3.858s.518-1.458.518-1.458.988-.66.893-1.269-.139-1.273,3.066-1.225S949.808,637.909,949.808,637.909Zm-49.781-30.037a21.8,21.8,0,0,0,.89,3.931,5.077,5.077,0,0,1,.106,1.546c-1.9-.149-3.876-.23-3.876-.23a.482.482,0,0,1,.1.241l-.3-.066-.434-.109,3.5-5.32ZM893.1,618.9l3.281.521.277.044a10.47,10.47,0,0,0-.171,1.553c0,.047.073.109.179.175a4.246,4.246,0,0,0-.062.777c.051.263,1.59.824,3.351,1.291-.022.095-.047.186-.073.27h0c-1.557-.82-4.011-1.2-4.292-1.823s-8.627-3.522-8.627-3.522-.306-.164-.831-.416l2.188.416.6-.062a32.764,32.764,0,0,0,4.171.777Z" transform="translate(-561.567 -376.689)"/>
      <path id="路径_179" data-name="路径 179" class="cls-7" d="M959.886,753.8s-1.309,7.9-7.941,9.064-28.786.926-28.786.926S910.5,761.97,905.92,751.272s-7.526-14.949-3.6-15.139,25.093,7.146,26.307,7.241S961.057,727.12,959.886,753.8Z" transform="translate(-582.376 -490.541)"/>
      <path id="路径_180" data-name="路径 180" class="cls-20" d="M959.886,753.8s-1.309,7.9-7.941,9.064-28.786.926-28.786.926S910.5,761.97,905.92,751.272s-7.526-14.949-3.6-15.139,25.093,7.146,26.307,7.241S961.057,727.12,959.886,753.8Z" transform="translate(-582.376 -490.541)"/>
      <path id="路径_181" data-name="路径 181" class="cls-10" d="M900.082,787.824a3.027,3.027,0,0,0,2.479,1.867,3.2,3.2,0,0,0,.8-.044c2.428-.419,8.131-1.4,10.14-1.028a17.184,17.184,0,0,0,5.035-.408c1.057-.2,1.823-.386,1.823-.386s-1.87-6.2-2.1-6.4-8.412-5.1-8.412-5.1l-6.476-.467h0a3.409,3.409,0,0,0-2.188,1.287,6.906,6.906,0,0,0-1.309,4.412C899.761,787.029,900.082,787.824,900.082,787.824Z" transform="translate(-581.967 -515.779)"/>
      <path id="路径_182" data-name="路径 182" class="cls-20" d="M900.114,787.875a3.027,3.027,0,0,0,2.479,1.867,27.34,27.34,0,0,1-1.761-2.552l.036-4.532a7.982,7.982,0,0,1,2.552-6.727h0s-3.409.23-3.5,5.7S900.114,787.875,900.114,787.875Z" transform="translate(-581.999 -515.83)"/>
      <path id="路径_183" data-name="路径 183" class="cls-8" d="M970.941,756.81l6.027-4.718,9.48-9.345s-1.025-.051-2.571-.117c-.386.244-1.458,1.017-1.5,1.954-.047,1.141-2.552.077-3.872.729s-7.708,8.845-8.831,8.791-2.009-.569-2.476.226l-.036.051Z" transform="translate(-624.736 -494.671)"/>
      <path id="路径_184" data-name="路径 184" class="cls-8" d="M903.46,777.152c.215.106.43.2.653.3,4.58,1.962,10.235,6.074,10.654,6.822.255.456,3.533,2.447,6.064,3.938,1.057-.2,1.823-.386,1.823-.386s-1.87-6.2-2.1-6.4-8.412-5.1-8.412-5.1l-6.476-.467h0A3.409,3.409,0,0,0,903.46,777.152Z" transform="translate(-584.262 -515.779)"/>
      <path id="路径_185" data-name="路径 185" class="cls-7" d="M868.105,726.234c.609,1.495,5.7,7.245,5.7,7.245a22.368,22.368,0,0,0,7.806,6.166c4.58,1.962,10.231,6.074,10.65,6.822.273.481,3.92,2.68,6.494,4.189l.576.335c.5.3.941.551,1.276.729l.675.39s1.564-1.258,3.121-2.519,3.07-2.5,3.092-2.574c.047-.139.656-1.728.514-1.823-.073-.047-.394-.693-.984-1.458a6.586,6.586,0,0,0-2.381-1.965,6.775,6.775,0,0,1-3.081-3.216s-.208-.149-.514-.346a6.232,6.232,0,0,0-2.1-.937c-1.028-.128-2.942-2.232-2.942-2.232a5.736,5.736,0,0,1-1.823-1.914c-.514-1.076-7.737-6-8.408-6.461l17.567,11.281,4.2,2.7,6.027-4.718,9.48-9.345s-1.276-.062-3.132-.142c-4.609-.2-12.8-.51-13.83-.281a7.892,7.892,0,0,1-2.552.171,9.05,9.05,0,0,1-3.876-.711c-1.542-.813-3.974-1.2-4.255-1.8s-8.557-3.478-8.557-3.478-11.263-5.98-15.281-2.428S867.5,724.739,868.105,726.234Z" transform="translate(-561.618 -478.253)"/>
      <path id="路径_186" data-name="路径 186" class="cls-21" d="M968.18,624.515l1.458,4.813,1.867,10.84,6.869.467,1.991-3.282,1.983-3.281s1.236-4.375,2.122-8.616c.788-3.752,1.3-7.391.445-7.785-.758-.365-1.254-1.612-1.579-2.972-.04-.168-.08-.339-.113-.507a26.192,26.192,0,0,1-.456-3.486s-14.391-.747-12.4,5.188a9.4,9.4,0,0,1,.54,3.154,7.154,7.154,0,0,1-.047.806,6.738,6.738,0,0,1-2.684,4.66Z" transform="translate(-625.384 -410.83)"/>
      <path id="路径_187" data-name="路径 187" class="cls-22" d="M960,639.683l.514,8.175,1.17,6.964,1.309,3.223,1.167,17.64s11.266,1.305,14-.022a1.188,1.188,0,0,0,.5-.386c3.311-5,2.228-19.474,2.228-19.474l1.262-9.345-.842-4.849-2.035-.215-1.564-.168s-.365.434-.86,1.094c-1.385,1.823-3.934,5.425-3.763,6.928.233,2.056-.281,4.16-1.094,4.485s-1.458.89-1.59.328a2.586,2.586,0,0,1-.139-1.495,12.026,12.026,0,0,0-.6-3.2s-1.262-2.851-1.167-4.065a4.8,4.8,0,0,0-.514-2.946c-.372-.328-.89-.653-.467-2.148s-1.845-4.4-1.845-4.4Z" transform="translate(-620.187 -426.793)"/>
      <path id="路径_188" data-name="路径 188" class="cls-8" d="M1000.756,650.956l.467,13.972,2.7,1.495a1.16,1.16,0,0,0,.5-.386c3.311-5,2.228-19.474,2.228-19.474l1.262-9.345-.842-4.849-2.035-.215c.787-3.752,1.3-7.387.445-7.784-.758-.365-1.258-1.612-1.579-2.968h0l-1.458,9.885s.124.89.168,1.823a5.216,5.216,0,0,1-.12,1.743,5.764,5.764,0,0,0-.091,2.334c-.846,1.488-1.265,4.237-1.458,6.891C1000.651,647.59,1000.756,650.956,1000.756,650.956Z" transform="translate(-646.071 -417.643)"/>
      <path id="路径_189" data-name="路径 189" class="cls-10" d="M1004.421,620.78s2.355.3,3.1,1.276,2.709,1.119,2.709,1.119,2.242.729,2.188.937.656.467,2.056.839,3.737,1.732,3.737,2.056,3.693,3.974,3.693,4.346a9.326,9.326,0,0,1,.981,4.251c-.139,2.476-.281,5.608.281,6.122s0,2.523,0,2.523a1.382,1.382,0,0,0-.047,1.495c.467.842-.095,4.346-.095,4.346l.047,3.646s-.514,2.29.095,2.381-.095,1.123-.095,1.123-.514,1.867.142,2.709.839,4.441.839,4.441l10,14.53s.138,2.665-3.037,2.618-3.132.605-3.037,1.214-.89,1.262-.89,1.262-1.262.653-.514,1.458,2.917,2.618-.653,3.832a8.51,8.51,0,0,1-1.028-1.867,21.367,21.367,0,0,1-.729-2.527s-.328-3.548-.981-4.011-.562-2.709-.562-2.709.933-1.823-.365-2.57-20.276-11.259-20.276-11.259l-.47-13.972s-.324-10.326,1.637-13.786a5.79,5.79,0,0,1,.095-2.333,12.076,12.076,0,0,0-.047-3.551Z" transform="translate(-646.552 -417.249)"/>
      <path id="路径_190" data-name="路径 190" class="cls-8" d="M946.189,635.219s-4.7-.966-5.958-.314-3.737,1.167-4.113,1.542-1.309.091-2.148,2.29-.937,4.437-2.009,5.469-1.637,1.728-1.685,2.476.142.937-.281,1.17-1.028,1.214-.839,1.59,9.717,8.6,9.717,8.6a22.237,22.237,0,0,0,.89,3.923c.423.795-.467,11.73-1.4,12.477s6.308.678,6.308.678.328-7.176.609-7.547-.186-8.021-.186-8.021-.047-6.541.558-8.273.54-7.475.54-7.475.54-3.449,1.192-4.251S946.189,635.219,946.189,635.219Z" transform="translate(-600.567 -426.081)"/>
      <path id="路径_191" data-name="路径 191" class="cls-10" d="M945.8,634.836s-4.7-.97-5.961-.314-3.737,1.167-4.109,1.539-1.309.095-2.151,2.29-.933,4.441-2.009,5.469-1.633,1.728-1.681,2.476.139.933-.281,1.167-1.028,1.218-.842,1.59,9.721,8.6,9.721,8.6a22.518,22.518,0,0,0,.886,3.927c.419.795-.467,11.726-1.4,12.473s6.308.678,6.308.678.328-7.172.605-7.547-.186-8.021-.186-8.021-.047-6.541.561-8.269.54-7.478.54-7.478.536-3.449,1.189-4.251S945.8,634.836,945.8,634.836Z" transform="translate(-600.322 -425.837)"/>
      <path id="路径_192" data-name="路径 192" class="cls-8" d="M973.865,615.826a9.4,9.4,0,0,1,.54,3.154,10.592,10.592,0,0,0,3.059.445,10.7,10.7,0,0,0,9.239-5.3,26.2,26.2,0,0,1-.456-3.485S971.856,609.89,973.865,615.826Z" transform="translate(-628.874 -410.786)"/>
      <path id="路径_193" data-name="路径 193" class="cls-21" d="M954.72,586.016a10.7,10.7,0,1,0,.233-2.224A10.7,10.7,0,0,0,954.72,586.016Z" transform="translate(-616.832 -388.36)"/>
      <path id="路径_194" data-name="路径 194" class="cls-10" d="M919.544,672.59l-2.552.795a1.338,1.338,0,0,1-.514,1.4,1.557,1.557,0,0,0-.653,1.4s-.281,1.028-.937,1.262-1.072,1.776-1.072,1.776l-2.151,2.476s-.795.656-.653.981-.842.423-.842.423l.514,8.317,4.441.839,2.756-.277,2.242-.842,1.962-1.167.89-2.29,3.905-5.983Z" transform="translate(-588.526 -450.169)"/>
      <path id="路径_195" data-name="路径 195" class="cls-21" d="M891.956,694.334s-5.7-8.222-9.954-3.785,1.728,11.635,3.128,11.4,8.087-.609,8.087-.609Z" transform="translate(-569.674 -460.745)"/>
      <rect id="矩形_23" data-name="矩形 23" class="cls-10" width="29.836" height="23.168" rx="1.54" transform="translate(309.824 216.833) rotate(27.04)"/>
      <rect id="矩形_24" data-name="矩形 24" class="cls-2" width="25.078" height="18.898" transform="translate(311.012 219.787) rotate(27.04)"/>
      <circle id="椭圆_28" data-name="椭圆 28" class="cls-23" cx="0.412" cy="0.412" r="0.412" transform="translate(305.459 227.336)"/>
      <circle id="椭圆_29" data-name="椭圆 29" class="cls-23" cx="0.678" cy="0.678" r="0.678" transform="translate(329.371 239.46)"/>
      <path id="路径_196" data-name="路径 196" class="cls-21" d="M901.79,702.936c-.047,6.169,12.71,7.478,12.71,7.478l3.26.514,1.458.233.609-6.038s-.667-.1-1.506-.3c-1.232-.288-2.833-.784-3.168-1.48C914.591,702.174,901.837,696.756,901.79,702.936Z" transform="translate(-583.201 -467.604)"/>
      <path id="路径_197" data-name="路径 197" class="cls-8" d="M955.36,583.85a1.276,1.276,0,0,1,.78.365c.365.383.365,1.061.853,1.3a.938.938,0,0,0,.558.062c1.24-.175,1.962-1.579,3.154-1.962a3.139,3.139,0,0,1,2.089.179,1.579,1.579,0,0,1,.693.445c.4.518.12,1.276.3,1.9.259.868,1.294,1.214,2.188,1.327a3.839,3.839,0,0,1,2.5.853,2.275,2.275,0,0,1,.448,1.823,1.393,1.393,0,0,0,0,.671c.248.7,1.458.594,1.776.044.233-.4.16-.729.707-.85a2.3,2.3,0,0,1,1.145.2,8.4,8.4,0,0,0,2.957.456,10.7,10.7,0,1,0-20.152-6.778Z" transform="translate(-617.239 -388.418)"/>
      <path id="路径_198" data-name="路径 198" class="cls-10" d="M964.351,580.481a1.459,1.459,0,0,1,0-.671,2.257,2.257,0,0,0-.445-1.823,3.892,3.892,0,0,0-2.5-.853c-.9-.124-1.932-.456-2.188-1.324-.182-.627.095-1.389-.3-1.9a1.579,1.579,0,0,0-.693-.445,3.161,3.161,0,0,0-2.089-.179c-1.192.365-1.914,1.787-3.154,1.962a.937.937,0,0,1-.558-.062c-.47-.237-.492-.915-.853-1.3-.565-.6-1.641-.211-2.337-.66a2.148,2.148,0,0,1-.755-1.382,6.738,6.738,0,0,1-.208-3.1c.408-1.739,1.962-2.917,2.953-4.415.922-1.382,1.458-3.132,2.833-4.047a5.6,5.6,0,0,1,4.74-.244,14.036,14.036,0,0,0,2.221.583,24.54,24.54,0,0,0,3.8-.233,8.171,8.171,0,0,1,5.024,1.528,2.775,2.775,0,0,1,.82.828,4.374,4.374,0,0,1,.365,1.488,7.628,7.628,0,0,0,.985,2.735c.394.656.886,1.254,1.24,1.932a2.946,2.946,0,0,1,.335,2.213,11.84,11.84,0,0,0-.445,1.127c-.208.912.394,1.783.8,2.625a4.911,4.911,0,0,1,.547,2.49,3.125,3.125,0,0,1-1.119,2.239,4.01,4.01,0,0,1-2.37.729,8.313,8.313,0,0,1-3.015-.452,2.346,2.346,0,0,0-1.145-.2c-.547.113-.474.445-.707.85C965.809,581.076,964.6,581.181,964.351,580.481Z" transform="translate(-612.662 -378.398)"/>
      <path id="路径_199" data-name="路径 199" class="cls-8" d="M969.434,757.535l6.027-4.718,9.48-9.345s-1.276-.062-3.132-.142a2.045,2.045,0,0,0-.66,1.276c-.047,1.145-2.552.08-3.872.729s-7.7,8.853-8.824,8.813-2.009-.569-2.476.226l-.036.051a1.331,1.331,0,0,1-.711.423Z" transform="translate(-623.51 -495.116)"/>
      <path id="路径_200" data-name="路径 200" class="cls-7" d="M943.44,751.587l3.03,9.67.474,1.517,1.458-.394,3.183-.871,14.162-3.89a12.324,12.324,0,0,0,5.1-1.36,15.445,15.445,0,0,1,8.8-1.922c1.87.179,3.952-.631,5.681-3.821,0,0,3.923-11.587-5.983-14.905s-10.377,1.761-10.377,1.761l-.135.084c-.386.244-1.458,1.017-1.5,1.954-.047,1.141-2.552.077-3.872.729s-7.708,8.846-8.831,8.791-2.009-.569-2.476.226l-.036.051c-.346.478-1.386.591-2.075.609H949.4l-.088.029-.729.211Z" transform="translate(-609.665 -489.496)"/>
      <path id="路径_201" data-name="路径 201" class="cls-8" d="M945.59,719.275l1.458.233.609-6.023s-.667-.1-1.506-.3C946.374,714.029,945.874,717.277,945.59,719.275Z" transform="translate(-611.031 -475.966)"/>
      <path id="路径_202" data-name="路径 202" class="cls-8" d="M984.183,652.39s4.346-1.262,3.281,11.073a34.406,34.406,0,0,1-9.115,20.138s-9.25,4.065-13.41,3.413-7.2-.795-7.2-.795a10.574,10.574,0,0,0-4.2-1.123c-2.337-.091-7.241-1.542-7.336-2.009s1.214-7.336.656-7.85c0,0,6.541.27,7.194.729s1.59.131,2.29,0,2.851-2.005,7.1-.365a4.307,4.307,0,0,0,2.009-.233,2.013,2.013,0,0,1,1.458-.095,4.119,4.119,0,0,0,1.014-.514c.142-.186,1.261,0,1.261,0a.5.5,0,0,0,.7-.325,3.086,3.086,0,0,1,.656-1.028s1.262-7.1,3.646-9.768a1.51,1.51,0,0,0,.51-1.353C974.51,661.538,978.575,650.895,984.183,652.39Z" transform="translate(-611.416 -437.242)"/>
      <path id="路径_203" data-name="路径 203" class="cls-10" d="M983.857,649.754s4.346-1.262,3.281,11.073a34.406,34.406,0,0,1-9.115,20.138s-9.254,4.065-13.41,3.413-7.2-.795-7.2-.795a10.572,10.572,0,0,0-4.208-1.108c-2.337-.091-7.245-1.539-7.336-2.009s1.214-7.336.653-7.85c0,0,6.541.27,7.2.729s1.586.135,2.29,0,2.848-2.005,7.1-.365a4.325,4.325,0,0,0,2.013-.233,2.012,2.012,0,0,1,1.458-.095,4.062,4.062,0,0,0,1.017-.514c.138-.186,1.262,0,1.262,0a.5.5,0,0,0,.7-.325,3.04,3.04,0,0,1,.653-1.028s1.262-7.1,3.646-9.768a1.519,1.519,0,0,0,.514-1.353C974.188,658.917,978.253,648.274,983.857,649.754Z" transform="translate(-611.207 -435.57)"/>
      <path id="路径_204" data-name="路径 204" class="cls-8" d="M957.5,776.811l6.173,7.471.04-.044c.047-.142.653-1.732.514-1.823A8.687,8.687,0,0,0,960.862,779a6.374,6.374,0,0,1-2.64-2.4Z" transform="translate(-618.598 -516.255)"/>
      <path id="路径_205" data-name="路径 205" class="cls-8" d="M957.506,798.221l.674.39s1.564-1.258,3.121-2.519,3.07-2.5,3.092-2.574c.047-.139.656-1.728.514-1.823-.073-.047-.394-.693-.984-1.458-4.182-1.17-1.52,1.732-1.163,1.867,0,0-5.1-1.17-5.374,4.375a6.563,6.563,0,0,0,.12,1.743Z" transform="translate(-618.517 -524.744)"/>
      <path id="路径_206" data-name="路径 206" class="cls-10" d="M963.434,800.6l.89.514,9.017.233a18.014,18.014,0,0,0,3.19,1.535,2.833,2.833,0,0,0,.456.1,20.576,20.576,0,0,0,2.512.047c.689,0,1.225-.047,1.225-.047s-.427-11.372-.729-12.572c-.157-.572-.911-.445-1.655-.16a11.173,11.173,0,0,0-1.615.82,28.19,28.19,0,0,0-4.441.7c-.609.335-2.333-.19-3.409,0s-2.99-1.265-2.99-1.265c-5.236-1.728-2.293,1.495-1.918,1.637,0,0-5.1-1.17-5.374,4.375S963.434,800.6,963.434,800.6Z" transform="translate(-619.286 -524.767)"/>
      <path id="路径_207" data-name="路径 207" class="cls-24" d="M1007.633,796.2c.1,2.352,1.936,5.276,3.03,6.822.689,0,1.225-.047,1.225-.047s-.427-11.372-.729-12.572c-.157-.573-.911-.445-1.655-.16C1008.577,791.95,1007.556,794.309,1007.633,796.2Z" transform="translate(-650.45 -524.769)"/>
      <path id="路径_208" data-name="路径 208" class="cls-8" d="M1007.633,796.2c.1,2.352,1.936,5.276,3.03,6.822.689,0,1.225-.047,1.225-.047s-.427-11.372-.729-12.572c-.157-.573-.911-.445-1.655-.16C1008.577,791.95,1007.556,794.309,1007.633,796.2Z" transform="translate(-650.45 -524.769)"/>
      <path id="路径_209" data-name="路径 209" class="cls-20" d="M1003.156,796.537c.62,2.275.613,4.824,1.6,6.363a2.827,2.827,0,0,0,.456.1,20.564,20.564,0,0,0,2.512.047c.689,0,1.225-.047,1.225-.047s-.427-11.372-.729-12.572c-.157-.572-.912-.445-1.655-.16a11.183,11.183,0,0,0-1.615.82S1002.361,793.628,1003.156,796.537Z" transform="translate(-647.511 -524.788)"/>
      <path id="路径_210" data-name="路径 210" class="cls-8" d="M918.09,744.65a18.686,18.686,0,0,1,8.273,6.621Z" transform="translate(-593.558 -495.955)"/>
      <g id="组_3" data-name="组 3" class="cls-18" transform="translate(335.481 189.416)">
        <path id="路径_211" data-name="路径 211" d="M1017.6,590.88a.13.13,0,0,1-.029.1,3.2,3.2,0,0,1-.153.39A2.559,2.559,0,0,1,1017.6,590.88Z" transform="translate(-992.152 -587.668)"/>
        <path id="路径_212" data-name="路径 212" d="M948.225,583.014a4.44,4.44,0,0,1,.365-.944c-.026.08-.051.16-.069.244a6.737,6.737,0,0,0,.208,3.1,2.141,2.141,0,0,0,.755,1.382c.693.448,1.772.058,2.337.66.365.365.365,1.061.853,1.294a.937.937,0,0,0,.558.066c1.24-.175,1.958-1.579,3.154-1.965a3.165,3.165,0,0,1,2.089.182,1.549,1.549,0,0,1,.693.445c.4.514.117,1.276.3,1.9.259.868,1.291,1.214,2.188,1.327a3.813,3.813,0,0,1,2.5.853,2.257,2.257,0,0,1,.445,1.823,1.459,1.459,0,0,0,0,.671c.248.7,1.458.594,1.776.04.23-.4.16-.729.707-.846a2.3,2.3,0,0,1,1.145.2,8.387,8.387,0,0,0,3.015.452,4.032,4.032,0,0,0,2.37-.729,2.786,2.786,0,0,0,.729-.882,2.954,2.954,0,0,1-1.006,1.582,4.011,4.011,0,0,1-2.37.729,8.314,8.314,0,0,1-3.015-.452,2.344,2.344,0,0,0-1.145-.2c-.547.113-.478.445-.707.85-.317.551-1.528.656-1.776-.044a1.459,1.459,0,0,1,0-.671,2.257,2.257,0,0,0-.445-1.823,3.893,3.893,0,0,0-2.5-.853c-.9-.124-1.932-.456-2.188-1.324-.186-.627.095-1.389-.3-1.9a1.579,1.579,0,0,0-.693-.445,3.161,3.161,0,0,0-2.089-.179c-1.192.365-1.914,1.787-3.154,1.962a.937.937,0,0,1-.558-.062c-.47-.237-.492-.915-.853-1.3-.565-.6-1.641-.211-2.337-.66a2.148,2.148,0,0,1-.755-1.382A6.508,6.508,0,0,1,948.225,583.014Z" transform="translate(-948.119 -582.07)"/>
        <path id="路径_213" data-name="路径 213" class="cls-8" d="M1013.358,683.313c-.853,1.156-1.823,2.224-2.589,3.449a6.5,6.5,0,0,0-1.138,4.076,10.644,10.644,0,0,0,1.637-2.917,42.727,42.727,0,0,1,3.147-4.74c.2-.3,1.491-2.031.839-2.115C1014.715,681.005,1013.65,682.92,1013.358,683.313Z" transform="translate(-987.186 -644.971)"/>
      </g>
    </g>
  </g>
</svg>
