<svg xmlns="http://www.w3.org/2000/svg" width="37.717" height="45.085" viewBox="0 0 37.717 45.085">
  <defs>
    <style>
      .cls-1 {
        fill: #fff;
      }
    </style>
  </defs>
  <path id="聊天窗口发送的文件" class="cls-1" d="M182.486,73.374c.907.793,1.615,1.474,2.154,1.984a14.32,14.32,0,0,1,1.219,1.36,3.324,3.324,0,0,1,.538.935,3.4,3.4,0,0,1,.113.68V79.1h-7.424a1.178,1.178,0,0,1-.878-.368,2.755,2.755,0,0,1-.623-.85,4.184,4.184,0,0,1-.368-.992,3.284,3.284,0,0,1-.113-.793V70.144h.142a2.867,2.867,0,0,1,.822.113,4.221,4.221,0,0,1,.992.453c.368.227.822.538,1.389.963.51.425,1.219.992,2.04,1.7ZM173.9,76.152a7.049,7.049,0,0,0,.312,1.984,5.863,5.863,0,0,0,.963,1.927,5.273,5.273,0,0,0,1.672,1.474,4.522,4.522,0,0,0,2.352.567h7.339V109.25a5.476,5.476,0,0,1-.567,2.494,6.161,6.161,0,0,1-1.53,1.87,7.306,7.306,0,0,1-2.1,1.19,6.536,6.536,0,0,1-2.267.425H155.311a4.889,4.889,0,0,1-2.1-.538,8.426,8.426,0,0,1-2.1-1.389,8.516,8.516,0,0,1-1.644-1.984,4.572,4.572,0,0,1-.652-2.324V76.35a5.346,5.346,0,0,1,.482-2.1,7.508,7.508,0,0,1,1.3-1.984,7.786,7.786,0,0,1,1.87-1.5,4.464,4.464,0,0,1,2.21-.6H173.9Zm3.174,30.038a2.99,2.99,0,0,0,2.21-.878,2.977,2.977,0,0,0,0-4.279,3.1,3.1,0,0,0-2.21-.878H158.229a2.99,2.99,0,0,0-2.21.878,2.826,2.826,0,0,0-.907,2.125,3.049,3.049,0,0,0,3.117,3.032h18.844Zm3.117-15.019a3.049,3.049,0,0,0-3.117-3.032H158.229a2.99,2.99,0,0,0-2.21.878,2.977,2.977,0,0,0,0,4.279,3.1,3.1,0,0,0,2.21.878h18.844a2.99,2.99,0,0,0,2.21-.878,2.916,2.916,0,0,0,.907-2.125Zm0,0" transform="translate(-148.821 -70.144)"/>
</svg>
