<svg xmlns="http://www.w3.org/2000/svg" width="18.321" height="17.391" viewBox="0 0 18.321 17.391">
  <defs>
    <style>
      .cls-1 {
        fill: #fff;
      }
    </style>
  </defs>
  <path class="cls-1" d="M82.712,118.163H66.355a.635.635,0,0,0-.463.2.719.719,0,0,0-.193.492v9.74a1.356,1.356,0,0,0,1.309,1.392h15.7a1.357,1.357,0,0,0,1.309-1.392v-9.045A1.356,1.356,0,0,0,82.712,118.163Zm-16.357-1.39h8.428a.7.7,0,0,0,.586-1.006l-1.129-2.4a1.3,1.3,0,0,0-1.172-.769H67.011a1.352,1.352,0,0,0-1.309,1.392v2.087a.719.719,0,0,0,.193.492A.633.633,0,0,0,66.355,116.773Zm0,0" transform="translate(-65.7 -112.6)"/>
</svg>
